<?xml version="1.0" encoding="UTF-8"?>
<svg xmlns="http://www.w3.org/2000/svg" xmlns:xlink="http://www.w3.org/1999/xlink" width="1411.3" height="799.5"><defs/><g transform="scale(1.33) translate(593,285)" style="fill:none;"><g transform="translate(-203,52)"><path d="M71,15L101,15" stroke="#707070" stroke-width="1" stroke-linecap="round"/></g><g transform="translate(-292,52)"><path d="M99,15L68,15" stroke="#707070" stroke-width="1" stroke-linecap="round"/></g><g transform="translate(-102,52)"><path d="M67,15Q67,17 97,17" stroke="#707070" stroke-width="1" stroke-linecap="round"/></g><g transform="translate(-102,-233)"><path d="M39,300Q39,-21 97,15" stroke="#707070" stroke-width="1" stroke-linecap="round"/></g><g transform="translate(-102,52)"><path d="M39,15Q39,232 103,196" stroke="#707070" stroke-width="1" stroke-linecap="round"/></g><g transform="translate(-5,-104)"><path d="M68,173Q68,-21 155,15" stroke="#707070" stroke-width="1" stroke-linecap="round"/></g><g transform="translate(-5,53)"><path d="M125,16Q125,15 155,15" stroke="#707070" stroke-width="1" stroke-linecap="round"/></g><g transform="translate(-5,54)"><path d="M68,15Q68,151 165,115" stroke="#707070" stroke-width="1" stroke-linecap="round"/></g><g transform="translate(150,-154)"><path d="M68,65Q68,-21 155,15" stroke="#707070" stroke-width="1" stroke-linecap="round"/></g><g transform="translate(150,-104)"><path d="M125,15L155,15" stroke="#707070" stroke-width="1" stroke-linecap="round"/></g><g transform="translate(150,-104)"><path d="M68,15Q68,101 155,65" stroke="#707070" stroke-width="1" stroke-linecap="round"/></g><g transform="translate(150,3)"><path d="M68,65Q68,-21 155,15" stroke="#707070" stroke-width="1" stroke-linecap="round"/></g><g transform="translate(150,53)"><path d="M125,15L155,15" stroke="#707070" stroke-width="1" stroke-linecap="round"/></g><g transform="translate(150,53)"><path d="M68,15Q68,101 155,65" stroke="#707070" stroke-width="1" stroke-linecap="round"/></g><g transform="translate(-5,-258)"><path d="M60,40Q60,15 90,15" stroke="#707070" stroke-width="1" stroke-linecap="round"/></g><g transform="translate(-5,-233)"><path d="M60,15Q60,40 90,40" stroke="#707070" stroke-width="1" stroke-linecap="round"/></g><g transform="translate(1,208)"><path d="M47,40Q47,15 77,15" stroke="#707070" stroke-width="1" stroke-linecap="round"/></g><g transform="translate(1,233)"><path d="M47,15Q47,40 77,40" stroke="#707070" stroke-width="1" stroke-linecap="round"/></g><g transform="translate(-422,-197)"><path d="M164,264Q164,-21 86,15" stroke="#707070" stroke-width="1" stroke-linecap="round"/></g><g transform="translate(-511,-222)"><path d="M99,40Q99,15 69,15" stroke="#707070" stroke-width="1" stroke-linecap="round"/></g><g transform="translate(-521,-197)"><path d="M109,15Q109,40 79,40" stroke="#707070" stroke-width="1" stroke-linecap="round"/></g><g transform="translate(-375,-21)"><path d="M117,88Q117,-21 63,15" stroke="#707070" stroke-width="1" stroke-linecap="round"/></g><g transform="translate(-468,-71)"><path d="M125,65Q125,-21 73,15" stroke="#707070" stroke-width="1" stroke-linecap="round"/></g><g transform="translate(-469,-21)"><path d="M126,15Q126,101 74,65" stroke="#707070" stroke-width="1" stroke-linecap="round"/></g><g transform="translate(-533,-96)"><path d="M75,40Q75,15 45,15" stroke="#707070" stroke-width="1" stroke-linecap="round"/></g><g transform="translate(-566,-71)"><path d="M108,15Q108,40 78,40" stroke="#707070" stroke-width="1" stroke-linecap="round"/></g><g transform="translate(-556,4)"><path d="M97,40Q97,15 67,15" stroke="#707070" stroke-width="1" stroke-linecap="round"/></g><g transform="translate(-560,29)"><path d="M101,15Q101,40 71,40" stroke="#707070" stroke-width="1" stroke-linecap="round"/></g><g transform="translate(-415,52)"><path d="M157,15Q157,128 97,92" stroke="#707070" stroke-width="1" stroke-linecap="round"/></g><g transform="translate(-470,104)"><path d="M65,40Q65,15 35,15" stroke="#707070" stroke-width="1" stroke-linecap="round"/></g><g transform="translate(-500,129)"><path d="M95,15Q95,40 65,40" stroke="#707070" stroke-width="1" stroke-linecap="round"/></g><g transform="translate(-361,52)"><path d="M103,15Q103,228 49,192" stroke="#707070" stroke-width="1" stroke-linecap="round"/></g><g transform="translate(-443,204)"><path d="M92,40Q92,15 62,15" stroke="#707070" stroke-width="1" stroke-linecap="round"/></g><g transform="translate(-456,229)"><path d="M105,15Q105,40 75,40" stroke="#707070" stroke-width="1" stroke-linecap="round"/></g><g transform="translate(-203,52)"><rect x="0" y="0" width="81" height="30" border="1" rx="10" ry="10" style="fill:#FF0000;stroke:#707070;stroke-width:1px;"/><g transform="translate (6 6) scale(0.005859375)" style="fill:#000000;"><g transform="translate(25.5 2048) scale (1 -1)"><path d="M494 774L596 774Q739 774 810 830.5Q881 887 881 995Q881 1104 821.5 1156Q762 1208 635 1208L494 1208ZM1194 1006Q1194 770 1046.5 645Q899 520 627 520L494 520L494 0L184 0L184 1462L651 1462Q917 1462 1055.5 1347.5Q1194 1233 1194 1006Z"/></g><g transform="translate(1311.5 2048) scale (1 -1)"><path d="M494 813L594 813Q741 813 811 862Q881 911 881 1016Q881 1120 809.5 1164Q738 1208 588 1208L494 1208ZM494 561L494 0L184 0L184 1462L610 1462Q908 1462 1051 1353.5Q1194 1245 1194 1024Q1194 895 1123 794.5Q1052 694 922 637L1352 0L1008 0L659 561Z"/></g><g transform="translate(2663.5 2048) scale (1 -1)"><path d="M1511 733Q1511 370 1331 175Q1151 -20 815 -20Q479 -20 299 175Q119 370 119 735Q119 1100 299.5 1292.5Q480 1485 817 1485Q1154 1485 1332.5 1291Q1511 1097 1511 733ZM444 733Q444 488 537 364Q630 240 815 240Q1186 240 1186 733Q1186 1227 817 1227Q632 1227 538 1102.5Q444 978 444 733Z"/></g><g transform="translate(4293.5 2048) scale (1 -1)"><path d="M739 821L1319 821L1319 63Q1178 17 1053.5 -1.5Q929 -20 799 -20Q468 -20 293.5 174.5Q119 369 119 733Q119 1087 321.5 1285Q524 1483 883 1483Q1108 1483 1317 1393L1214 1145Q1054 1225 881 1225Q680 1225 559 1090Q438 955 438 727Q438 489 535.5 363.5Q633 238 819 238Q916 238 1016 258L1016 563L739 563Z"/></g><g transform="translate(5776.5 2048) scale (1 -1)"><path d="M494 813L594 813Q741 813 811 862Q881 911 881 1016Q881 1120 809.5 1164Q738 1208 588 1208L494 1208ZM494 561L494 0L184 0L184 1462L610 1462Q908 1462 1051 1353.5Q1194 1245 1194 1024Q1194 895 1123 794.5Q1052 694 922 637L1352 0L1008 0L659 561Z"/></g><g transform="translate(7128.5 2048) scale (1 -1)"><path d="M1079 0L973 348L440 348L334 0L0 0L516 1468L895 1468L1413 0ZM899 608Q752 1081 733.5 1143Q715 1205 707 1241Q674 1113 518 608Z"/></g><g transform="translate(8541.5 2048) scale (1 -1)"><path d="M803 0L451 1147L442 1147Q461 797 461 680L461 0L184 0L184 1462L606 1462L952 344L958 344L1325 1462L1747 1462L1747 0L1458 0L1458 692Q1458 741 1459.5 805Q1461 869 1473 1145L1464 1145L1087 0Z"/></g><g transform="translate(10472.5 2048) scale (1 -1)"><path d="M639 860L944 1462L1278 1462L793 569L793 0L485 0L485 559L0 1462L336 1462Z"/></g></g></g><g transform="translate(-102,52)"><rect x="0" y="0" width="77" height="30" border="1" rx="10" ry="10" style="fill:#FF9900;stroke:#707070;stroke-width:1px;"/><g transform="translate (6 6) scale(0.005859375)" style="fill:#4F4F4F;"><g transform="translate(24.66666666666697 2048) scale (1 -1)"><path d="M1047 406Q1047 208 904.5 94Q762 -20 508 -20Q274 -20 94 68L94 356Q242 290 344.5 263Q447 236 532 236Q634 236 688.5 275Q743 314 743 391Q743 434 719 467.5Q695 501 648.5 532Q602 563 459 631Q325 694 258 752Q191 810 151 887Q111 964 111 1067Q111 1261 242.5 1372Q374 1483 606 1483Q720 1483 823.5 1456Q927 1429 1040 1380L940 1139Q823 1187 746.5 1206Q670 1225 596 1225Q508 1225 461 1184Q414 1143 414 1077Q414 1036 433 1005.5Q452 975 493.5 946.5Q535 918 690 844Q895 746 971 647.5Q1047 549 1047 406Z"/></g><g transform="translate(1152.666666666667 2048) scale (1 -1)"><path d="M0 1118L334 1118L545 489Q572 407 582 295L588 295Q599 398 631 489L838 1118L1165 1118L692 -143Q627 -318 506.5 -405Q386 -492 225 -492Q146 -492 70 -475L70 -233Q125 -246 190 -246Q271 -246 331.5 -196.5Q392 -147 426 -47L444 8Z"/></g><g transform="translate(2317.666666666667 2048) scale (1 -1)"><path d="M940 332Q940 160 820.5 70Q701 -20 463 -20Q341 -20 255 -3.5Q169 13 94 45L94 297Q179 257 285.5 230Q392 203 473 203Q639 203 639 299Q639 335 617 357.5Q595 380 541 408.5Q487 437 397 475Q268 529 207.5 575Q147 621 119.5 680.5Q92 740 92 827Q92 976 207.5 1057.5Q323 1139 535 1139Q737 1139 928 1051L836 831Q752 867 679 890Q606 913 530 913Q395 913 395 840Q395 799 438.5 769Q482 739 629 680Q760 627 821 581Q882 535 911 475Q940 415 940 332Z"/></g><g transform="translate(3335.666666666667 2048) scale (1 -1)"><path d="M631 223Q711 223 823 258L823 31Q709 -20 543 -20Q360 -20 276.5 72.5Q193 165 193 350L193 889L47 889L47 1018L215 1120L303 1356L498 1356L498 1118L811 1118L811 889L498 889L498 350Q498 285 534.5 254Q571 223 631 223Z"/></g><g transform="translate(4224.666666666667 2048) scale (1 -1)"><path d="M623 922Q526 922 471 860.5Q416 799 408 686L836 686Q834 799 777 860.5Q720 922 623 922ZM666 -20Q396 -20 244 129Q92 278 92 551Q92 832 232.5 985.5Q373 1139 621 1139Q858 1139 990 1004Q1122 869 1122 631L1122 483L401 483Q406 353 478 280Q550 207 680 207Q781 207 871 228Q961 249 1059 295L1059 59Q979 19 888 -0.5Q797 -20 666 -20ZM447 1241L447 1268Q619 1468 682 1569L1024 1569L1024 1548Q972 1496 846.5 1393.5Q721 1291 650 1241Z"/></g><g transform="translate(5434.666666666667 2048) scale (1 -1)"><path d="M1161 0L856 0L856 653Q856 774 815.5 834.5Q775 895 688 895Q571 895 518 809Q465 723 465 526L465 0L160 0L160 1118L393 1118L434 975L451 975Q496 1052 581 1095.5Q666 1139 776 1139Q1027 1139 1116 975L1143 975Q1188 1053 1275.5 1096Q1363 1139 1473 1139Q1663 1139 1760.5 1041.5Q1858 944 1858 729L1858 0L1552 0L1552 653Q1552 774 1511.5 834.5Q1471 895 1384 895Q1272 895 1216.5 815Q1161 735 1161 561Z"/></g><g transform="translate(7445.666666666667 2048) scale (1 -1)"><path d="M403 561Q403 395 457.5 310Q512 225 635 225Q757 225 810.5 309.5Q864 394 864 561Q864 727 810 810Q756 893 633 893Q511 893 457 810.5Q403 728 403 561ZM1176 561Q1176 288 1032 134Q888 -20 631 -20Q470 -20 347 50.5Q224 121 158 253Q92 385 92 561Q92 835 235 987Q378 1139 637 1139Q798 1139 921 1069Q1044 999 1110 868Q1176 737 1176 561Z"/></g><g transform="translate(8713.666666666668 2048) scale (1 -1)"><path d="M426 0L0 1118L319 1118L535 481Q568 377 578 252L586 252Q592 365 631 481L846 1118L1165 1118L739 0Z"/></g><g transform="translate(9878.666666666668 2048) scale (1 -1)"><path d="M623 922Q526 922 471 860.5Q416 799 408 686L836 686Q834 799 777 860.5Q720 922 623 922ZM666 -20Q396 -20 244 129Q92 278 92 551Q92 832 232.5 985.5Q373 1139 621 1139Q858 1139 990 1004Q1122 869 1122 631L1122 483L401 483Q406 353 478 280Q550 207 680 207Q781 207 871 228Q961 249 1059 295L1059 59Q979 19 888 -0.5Q797 -20 666 -20ZM447 1241L447 1268Q619 1468 682 1569L1024 1569L1024 1548Q972 1496 846.5 1393.5Q721 1291 650 1241Z"/></g></g></g><g transform="translate(-292,52)"><rect x="0" y="0" width="68" height="30" border="1" rx="10" ry="10" style="fill:#FF9900;stroke:#707070;stroke-width:1px;"/><g transform="translate (6 6) scale(0.005859375)" style="fill:#4F4F4F;"><g transform="translate(33.66666666666697 2048) scale (1 -1)"><path d="M1079 0L973 348L440 348L334 0L0 0L516 1468L895 1468L1413 0ZM899 608Q752 1081 733.5 1143Q715 1205 707 1241Q674 1113 518 608Z"/></g><g transform="translate(1446.666666666667 2048) scale (1 -1)"><path d="M774 -20Q577 -20 465 123L449 123Q465 -17 465 -39L465 -492L160 -492L160 1118L408 1118L451 973L465 973Q572 1139 782 1139Q980 1139 1092 986Q1204 833 1204 561Q1204 382 1151.5 250Q1099 118 1002 49Q905 -20 774 -20ZM684 895Q571 895 519 825.5Q467 756 465 596L465 563Q465 383 518.5 305Q572 227 688 227Q893 227 893 565Q893 730 842.5 812.5Q792 895 684 895Z"/></g><g transform="translate(2742.666666666667 2048) scale (1 -1)"><path d="M465 0L160 0L160 1556L465 1556Z"/></g><g transform="translate(3367.666666666667 2048) scale (1 -1)"><path d="M147 1407Q147 1556 313 1556Q479 1556 479 1407Q479 1336 437.5 1296.5Q396 1257 313 1257Q147 1257 147 1407ZM465 0L160 0L160 1118L465 1118Z"/></g><g transform="translate(3992.666666666667 2048) scale (1 -1)"><path d="M453 608L586 778L899 1118L1243 1118L799 633L1270 0L918 0L596 453L465 348L465 0L160 0L160 1556L465 1556L465 862L449 608Z"/></g><g transform="translate(5262.666666666667 2048) scale (1 -1)"><path d="M870 0L811 152L803 152Q726 55 644.5 17.5Q563 -20 432 -20Q271 -20 178.5 72Q86 164 86 334Q86 512 210.5 596.5Q335 681 586 690L780 696L780 745Q780 915 606 915Q472 915 291 834L190 1040Q383 1141 618 1141Q843 1141 963 1043Q1083 945 1083 745L1083 0ZM780 518L662 514Q529 510 464 466Q399 422 399 332Q399 203 547 203Q653 203 716.5 264Q780 325 780 426Z"/></g><g transform="translate(6499.666666666667 2048) scale (1 -1)"><path d="M614 -20Q92 -20 92 553Q92 838 234 988.5Q376 1139 641 1139Q835 1139 989 1063L899 827Q827 856 765 874.5Q703 893 641 893Q403 893 403 555Q403 227 641 227Q729 227 804 250.5Q879 274 954 324L954 63Q880 16 804.5 -2Q729 -20 614 -20ZM1055 1569L1055 1542Q971 1458 900.5 1374.5Q830 1291 799 1241L442 1241Q413 1288 359 1353.5Q305 1419 186 1542L186 1569L389 1569Q536 1476 618 1393Q702 1480 852 1569Z"/></g><g transform="translate(7552.666666666667 2048) scale (1 -1)"><path d="M1192 0L887 0L887 653Q887 774 844 834.5Q801 895 707 895Q579 895 522 809.5Q465 724 465 526L465 0L160 0L160 1118L393 1118L434 975L451 975Q502 1056 591.5 1097.5Q681 1139 795 1139Q990 1139 1091 1033.5Q1192 928 1192 729Z"/></g><g transform="translate(8898.666666666668 2048) scale (1 -1)"><path d="M465 0L160 0L160 1118L465 1118ZM145 1241L145 1268Q317 1468 380 1569L722 1569L722 1548Q670 1496 544.5 1393.5Q419 1291 348 1241Z"/></g></g></g><g transform="translate(-5,54)"><rect x="0" y="0" width="135" height="30" border="1" rx="10" ry="10" style="fill:#FFCC00;stroke:#707070;stroke-width:1px;"/><g transform="translate (6 6) scale(0.005859375)" style="fill:#4F4F4F;"><g transform="translate(9117 2048) scale (1 -1)"><path d="M1511 733Q1511 370 1331 175Q1151 -20 815 -20Q479 -20 299 175Q119 370 119 735Q119 1100 299.5 1292.5Q480 1485 817 1485Q1154 1485 1332.5 1291Q1511 1097 1511 733ZM444 733Q444 488 537 364Q630 240 815 240Q1186 240 1186 733Q1186 1227 817 1227Q632 1227 538 1102.5Q444 978 444 733Z"/></g><g transform="translate(10747 2048) scale (1 -1)"><path d="M1047 406Q1047 208 904.5 94Q762 -20 508 -20Q274 -20 94 68L94 356Q242 290 344.5 263Q447 236 532 236Q634 236 688.5 275Q743 314 743 391Q743 434 719 467.5Q695 501 648.5 532Q602 563 459 631Q325 694 258 752Q191 810 151 887Q111 964 111 1067Q111 1261 242.5 1372Q374 1483 606 1483Q720 1483 823.5 1456Q927 1429 1040 1380L940 1139Q823 1187 746.5 1206Q670 1225 596 1225Q508 1225 461 1184Q414 1143 414 1077Q414 1036 433 1005.5Q452 975 493.5 946.5Q535 918 690 844Q895 746 971 647.5Q1047 549 1047 406Z"/></g></g></g><g transform="translate(-5,-233)"><rect x="0" y="0" width="70" height="30" border="1" rx="10" ry="10" style="fill:#FFCC00;stroke:#707070;stroke-width:1px;"/><g transform="translate (6 6) scale(0.005859375)" style="fill:#4F4F4F;"><g transform="translate(49.33333333333303 2048) scale (1 -1)"><path d="M489 0L184 0L184 1462L1022 1462L1022 1208L489 1208L489 831L985 831L985 578L489 578Z"/></g><g transform="translate(1173.333333333333 2048) scale (1 -1)"><path d="M147 1407Q147 1556 313 1556Q479 1556 479 1407Q479 1336 437.5 1296.5Q396 1257 313 1257Q147 1257 147 1407ZM465 0L160 0L160 1118L465 1118Z"/></g><g transform="translate(1798.333333333333 2048) scale (1 -1)"><path d="M784 1139Q846 1139 887 1130L864 844Q827 854 774 854Q628 854 546.5 779Q465 704 465 569L465 0L160 0L160 1118L391 1118L436 930L451 930Q503 1024 591.5 1081.5Q680 1139 784 1139Z"/></g><g transform="translate(2728.333333333333 2048) scale (1 -1)"><path d="M1161 0L856 0L856 653Q856 774 815.5 834.5Q775 895 688 895Q571 895 518 809Q465 723 465 526L465 0L160 0L160 1118L393 1118L434 975L451 975Q496 1052 581 1095.5Q666 1139 776 1139Q1027 1139 1116 975L1143 975Q1188 1053 1275.5 1096Q1363 1139 1473 1139Q1663 1139 1760.5 1041.5Q1858 944 1858 729L1858 0L1552 0L1552 653Q1552 774 1511.5 834.5Q1471 895 1384 895Q1272 895 1216.5 815Q1161 735 1161 561Z"/></g><g transform="translate(4739.333333333333 2048) scale (1 -1)"><path d="M1079 0L993 391L879 885L870 885L666 0L338 0L20 1118L324 1118L453 623Q475 535 514 256L522 256Q526 332 557 497L573 582L711 1118L1047 1118L1178 582Q1190 527 1207.5 420.5Q1225 314 1227 256L1235 256Q1246 345 1266 458.5Q1286 572 1300 623L1434 1118L1733 1118L1411 0Z"/></g><g transform="translate(6492.333333333333 2048) scale (1 -1)"><path d="M870 0L811 152L803 152Q726 55 644.5 17.5Q563 -20 432 -20Q271 -20 178.5 72Q86 164 86 334Q86 512 210.5 596.5Q335 681 586 690L780 696L780 745Q780 915 606 915Q472 915 291 834L190 1040Q383 1141 618 1141Q843 1141 963 1043Q1083 945 1083 745L1083 0ZM780 518L662 514Q529 510 464 466Q399 422 399 332Q399 203 547 203Q653 203 716.5 264Q780 325 780 426Z"/></g><g transform="translate(7729.333333333333 2048) scale (1 -1)"><path d="M784 1139Q846 1139 887 1130L864 844Q827 854 774 854Q628 854 546.5 779Q465 704 465 569L465 0L160 0L160 1118L391 1118L436 930L451 930Q503 1024 591.5 1081.5Q680 1139 784 1139Z"/></g><g transform="translate(8659.333333333332 2048) scale (1 -1)"><path d="M623 922Q526 922 471 860.5Q416 799 408 686L836 686Q834 799 777 860.5Q720 922 623 922ZM666 -20Q396 -20 244 129Q92 278 92 551Q92 832 232.5 985.5Q373 1139 621 1139Q858 1139 990 1004Q1122 869 1122 631L1122 483L401 483Q406 353 478 280Q550 207 680 207Q781 207 871 228Q961 249 1059 295L1059 59Q979 19 888 -0.5Q797 -20 666 -20Z"/></g></g></g><g transform="translate(1,233)"><rect x="0" y="0" width="57" height="30" border="1" rx="10" ry="10" style="fill:#FFCC00;stroke:#707070;stroke-width:1px;"/><g transform="translate (6 6) scale(0.005859375)" style="fill:#4F4F4F;"><g transform="translate(69.5 2048) scale (1 -1)"><path d="M1397 745Q1397 384 1191.5 192Q986 0 598 0L184 0L184 1462L643 1462Q1001 1462 1199 1273Q1397 1084 1397 745ZM1075 737Q1075 1208 659 1208L494 1208L494 256L627 256Q1075 256 1075 737Z"/></g><g transform="translate(1585.5 2048) scale (1 -1)"><path d="M784 1139Q846 1139 887 1130L864 844Q827 854 774 854Q628 854 546.5 779Q465 704 465 569L465 0L160 0L160 1118L391 1118L436 930L451 930Q503 1024 591.5 1081.5Q680 1139 784 1139Z"/></g><g transform="translate(2515.5 2048) scale (1 -1)"><path d="M147 1407Q147 1556 313 1556Q479 1556 479 1407Q479 1336 437.5 1296.5Q396 1257 313 1257Q147 1257 147 1407ZM465 0L160 0L160 1118L465 1118Z"/></g><g transform="translate(3140.5 2048) scale (1 -1)"><path d="M426 0L0 1118L319 1118L535 481Q568 377 578 252L586 252Q592 365 631 481L846 1118L1165 1118L739 0Z"/></g><g transform="translate(4305.5 2048) scale (1 -1)"><path d="M623 922Q526 922 471 860.5Q416 799 408 686L836 686Q834 799 777 860.5Q720 922 623 922ZM666 -20Q396 -20 244 129Q92 278 92 551Q92 832 232.5 985.5Q373 1139 621 1139Q858 1139 990 1004Q1122 869 1122 631L1122 483L401 483Q406 353 478 280Q550 207 680 207Q781 207 871 228Q961 249 1059 295L1059 59Q979 19 888 -0.5Q797 -20 666 -20Z"/></g><g transform="translate(5515.5 2048) scale (1 -1)"><path d="M784 1139Q846 1139 887 1130L864 844Q827 854 774 854Q628 854 546.5 779Q465 704 465 569L465 0L160 0L160 1118L391 1118L436 930L451 930Q503 1024 591.5 1081.5Q680 1139 784 1139Z"/></g><g transform="translate(6445.5 2048) scale (1 -1)"><path d="M0 1118L334 1118L545 489Q572 407 582 295L588 295Q599 398 631 489L838 1118L1165 1118L692 -143Q627 -318 506.5 -405Q386 -492 225 -492Q146 -492 70 -475L70 -233Q125 -246 190 -246Q271 -246 331.5 -196.5Q392 -147 426 -47L444 8Z"/></g></g></g><g transform="translate(150,-104)"><rect x="0" y="0" width="135" height="30" border="1" rx="10" ry="10" style="fill:#FFFF00;stroke:#707070;stroke-width:1px;"/><g transform="translate (6 6) scale(0.005859375)" style="fill:#4F4F4F;"><g transform="translate(7202.5 2048) scale (1 -1)"><path d="M494 774L596 774Q739 774 810 830.5Q881 887 881 995Q881 1104 821.5 1156Q762 1208 635 1208L494 1208ZM1194 1006Q1194 770 1046.5 645Q899 520 627 520L494 520L494 0L184 0L184 1462L651 1462Q917 1462 1055.5 1347.5Q1194 1233 1194 1006Z"/></g><g transform="translate(8488.5 2048) scale (1 -1)"><path d="M784 1139Q846 1139 887 1130L864 844Q827 854 774 854Q628 854 546.5 779Q465 704 465 569L465 0L160 0L160 1118L391 1118L436 930L451 930Q503 1024 591.5 1081.5Q680 1139 784 1139Z"/></g><g transform="translate(9418.5 2048) scale (1 -1)"><path d="M403 561Q403 395 457.5 310Q512 225 635 225Q757 225 810.5 309.5Q864 394 864 561Q864 727 810 810Q756 893 633 893Q511 893 457 810.5Q403 728 403 561ZM1176 561Q1176 288 1032 134Q888 -20 631 -20Q470 -20 347 50.5Q224 121 158 253Q92 385 92 561Q92 835 235 987Q378 1139 637 1139Q798 1139 921 1069Q1044 999 1110 868Q1176 737 1176 561Z"/></g><g transform="translate(11218.5 2048) scale (1 -1)"><path d="M494 774L596 774Q739 774 810 830.5Q881 887 881 995Q881 1104 821.5 1156Q762 1208 635 1208L494 1208ZM1194 1006Q1194 770 1046.5 645Q899 520 627 520L494 520L494 0L184 0L184 1462L651 1462Q917 1462 1055.5 1347.5Q1194 1233 1194 1006Z"/></g><g transform="translate(12504.5 2048) scale (1 -1)"><path d="M805 1225Q630 1225 534 1093.5Q438 962 438 727Q438 238 805 238Q959 238 1178 315L1178 55Q998 -20 776 -20Q457 -20 288 173.5Q119 367 119 729Q119 957 202 1128.5Q285 1300 440.5 1391.5Q596 1483 805 1483Q1018 1483 1233 1380L1133 1128Q1051 1167 968 1196Q885 1225 805 1225Z"/></g></g></g><g transform="translate(150,53)"><rect x="0" y="0" width="135" height="30" border="1" rx="10" ry="10" style="fill:#FFFF00;stroke:#707070;stroke-width:1px;"/><g transform="translate (6 6) scale(0.005859375)" style="fill:#4F4F4F;"><g transform="translate(5625.5 2048) scale (1 -1)"><path d="M494 774L596 774Q739 774 810 830.5Q881 887 881 995Q881 1104 821.5 1156Q762 1208 635 1208L494 1208ZM1194 1006Q1194 770 1046.5 645Q899 520 627 520L494 520L494 0L184 0L184 1462L651 1462Q917 1462 1055.5 1347.5Q1194 1233 1194 1006Z"/></g><g transform="translate(6911.5 2048) scale (1 -1)"><path d="M784 1139Q846 1139 887 1130L864 844Q827 854 774 854Q628 854 546.5 779Q465 704 465 569L465 0L160 0L160 1118L391 1118L436 930L451 930Q503 1024 591.5 1081.5Q680 1139 784 1139Z"/></g><g transform="translate(7841.5 2048) scale (1 -1)"><path d="M403 561Q403 395 457.5 310Q512 225 635 225Q757 225 810.5 309.5Q864 394 864 561Q864 727 810 810Q756 893 633 893Q511 893 457 810.5Q403 728 403 561ZM1176 561Q1176 288 1032 134Q888 -20 631 -20Q470 -20 347 50.5Q224 121 158 253Q92 385 92 561Q92 835 235 987Q378 1139 637 1139Q798 1139 921 1069Q1044 999 1110 868Q1176 737 1176 561Z"/></g><g transform="translate(9641.5 2048) scale (1 -1)"><path d="M803 0L451 1147L442 1147Q461 797 461 680L461 0L184 0L184 1462L606 1462L952 344L958 344L1325 1462L1747 1462L1747 0L1458 0L1458 692Q1458 741 1459.5 805Q1461 869 1473 1145L1464 1145L1087 0Z"/></g><g transform="translate(11572.5 2048) scale (1 -1)"><path d="M403 561Q403 395 457.5 310Q512 225 635 225Q757 225 810.5 309.5Q864 394 864 561Q864 727 810 810Q756 893 633 893Q511 893 457 810.5Q403 728 403 561ZM1176 561Q1176 288 1032 134Q888 -20 631 -20Q470 -20 347 50.5Q224 121 158 253Q92 385 92 561Q92 835 235 987Q378 1139 637 1139Q798 1139 921 1069Q1044 999 1110 868Q1176 737 1176 561Z"/></g><g transform="translate(12840.5 2048) scale (1 -1)"><path d="M782 1139Q980 1139 1092 984.5Q1204 830 1204 561Q1204 284 1088.5 132Q973 -20 774 -20Q577 -20 465 123L444 123L393 0L160 0L160 1556L465 1556L465 1194Q465 1125 453 973L465 973Q572 1139 782 1139ZM684 895Q571 895 519 825.5Q467 756 465 596L465 563Q465 383 518.5 305Q572 227 688 227Q782 227 837.5 313.5Q893 400 893 565Q893 730 837 812.5Q781 895 684 895Z"/></g><g transform="translate(14136.5 2048) scale (1 -1)"><path d="M147 1407Q147 1556 313 1556Q479 1556 479 1407Q479 1336 437.5 1296.5Q396 1257 313 1257Q147 1257 147 1407ZM465 0L160 0L160 1118L465 1118Z"/></g><g transform="translate(14761.5 2048) scale (1 -1)"><path d="M465 0L160 0L160 1556L465 1556Z"/></g></g></g><g transform="translate(160,154)"><rect x="0" y="0" width="135" height="30" border="1" rx="10" ry="10" style="fill:#FFFF00;stroke:#707070;stroke-width:1px;"/><g transform="translate (6 6) scale(0.005859375)" style="fill:#4F4F4F;"><g transform="translate(7858 2048) scale (1 -1)"><path d="M494 813L594 813Q741 813 811 862Q881 911 881 1016Q881 1120 809.5 1164Q738 1208 588 1208L494 1208ZM494 561L494 0L184 0L184 1462L610 1462Q908 1462 1051 1353.5Q1194 1245 1194 1024Q1194 895 1123 794.5Q1052 694 922 637L1352 0L1008 0L659 561Z"/></g><g transform="translate(9210 2048) scale (1 -1)"><path d="M748 0L438 0L438 1204L41 1204L41 1462L1145 1462L1145 1204L748 1204Z"/></g><g transform="translate(10396 2048) scale (1 -1)"><path d="M1511 733Q1511 370 1331 175Q1151 -20 815 -20Q479 -20 299 175Q119 370 119 735Q119 1100 299.5 1292.5Q480 1485 817 1485Q1154 1485 1332.5 1291Q1511 1097 1511 733ZM444 733Q444 488 537 364Q630 240 815 240Q1186 240 1186 733Q1186 1227 817 1227Q632 1227 538 1102.5Q444 978 444 733Z"/></g><g transform="translate(12026 2048) scale (1 -1)"><path d="M1047 406Q1047 208 904.5 94Q762 -20 508 -20Q274 -20 94 68L94 356Q242 290 344.5 263Q447 236 532 236Q634 236 688.5 275Q743 314 743 391Q743 434 719 467.5Q695 501 648.5 532Q602 563 459 631Q325 694 258 752Q191 810 151 887Q111 964 111 1067Q111 1261 242.5 1372Q374 1483 606 1483Q720 1483 823.5 1456Q927 1429 1040 1380L940 1139Q823 1187 746.5 1206Q670 1225 596 1225Q508 1225 461 1184Q414 1143 414 1077Q414 1036 433 1005.5Q452 975 493.5 946.5Q535 918 690 844Q895 746 971 647.5Q1047 549 1047 406Z"/></g></g></g><g transform="translate(305,-154)"><rect x="0" y="0" width="135" height="30" border="1" rx="10" ry="10" style="fill:#FFFF99;stroke:#707070;stroke-width:1px;"/><g transform="translate (6 6) scale(0.005859375)" style="fill:#4F4F4F;"><g transform="translate(5863 2048) scale (1 -1)"><path d="M1608 0L1255 0L1057 768Q1046 809 1019.5 937.5Q993 1066 989 1110Q983 1056 959 936.5Q935 817 922 766L725 0L373 0L0 1462L305 1462L492 664Q541 443 563 281Q569 338 590.5 457.5Q612 577 631 643L844 1462L1137 1462L1350 643Q1364 588 1385 475Q1406 362 1417 281Q1427 359 1449 475.5Q1471 592 1489 664L1675 1462L1980 1462Z"/></g><g transform="translate(7843 2048) scale (1 -1)"><path d="M147 1407Q147 1556 313 1556Q479 1556 479 1407Q479 1336 437.5 1296.5Q396 1257 313 1257Q147 1257 147 1407ZM465 0L160 0L160 1118L465 1118Z"/></g><g transform="translate(8468 2048) scale (1 -1)"><path d="M1192 0L887 0L887 653Q887 774 844 834.5Q801 895 707 895Q579 895 522 809.5Q465 724 465 526L465 0L160 0L160 1118L393 1118L434 975L451 975Q502 1056 591.5 1097.5Q681 1139 795 1139Q990 1139 1091 1033.5Q1192 928 1192 729Z"/></g><g transform="translate(9814 2048) scale (1 -1)"><path d="M514 -20Q317 -20 204.5 133Q92 286 92 557Q92 832 206.5 985.5Q321 1139 522 1139Q733 1139 844 975L854 975Q831 1100 831 1198L831 1556L1137 1556L1137 0L903 0L844 145L831 145Q727 -20 514 -20ZM621 223Q738 223 792.5 291Q847 359 852 522L852 555Q852 735 796.5 813Q741 891 616 891Q514 891 457.5 804.5Q401 718 401 553Q401 388 458 305.5Q515 223 621 223Z"/></g><g transform="translate(11110 2048) scale (1 -1)"><path d="M403 561Q403 395 457.5 310Q512 225 635 225Q757 225 810.5 309.5Q864 394 864 561Q864 727 810 810Q756 893 633 893Q511 893 457 810.5Q403 728 403 561ZM1176 561Q1176 288 1032 134Q888 -20 631 -20Q470 -20 347 50.5Q224 121 158 253Q92 385 92 561Q92 835 235 987Q378 1139 637 1139Q798 1139 921 1069Q1044 999 1110 868Q1176 737 1176 561Z"/></g><g transform="translate(12378 2048) scale (1 -1)"><path d="M1079 0L993 391L879 885L870 885L666 0L338 0L20 1118L324 1118L453 623Q475 535 514 256L522 256Q526 332 557 497L573 582L711 1118L1047 1118L1178 582Q1190 527 1207.5 420.5Q1225 314 1227 256L1235 256Q1246 345 1266 458.5Q1286 572 1300 623L1434 1118L1733 1118L1411 0Z"/></g><g transform="translate(14131 2048) scale (1 -1)"><path d="M940 332Q940 160 820.5 70Q701 -20 463 -20Q341 -20 255 -3.5Q169 13 94 45L94 297Q179 257 285.5 230Q392 203 473 203Q639 203 639 299Q639 335 617 357.5Q595 380 541 408.5Q487 437 397 475Q268 529 207.5 575Q147 621 119.5 680.5Q92 740 92 827Q92 976 207.5 1057.5Q323 1139 535 1139Q737 1139 928 1051L836 831Q752 867 679 890Q606 913 530 913Q395 913 395 840Q395 799 438.5 769Q482 739 629 680Q760 627 821 581Q882 535 911 475Q940 415 940 332Z"/></g></g></g><g transform="translate(305,-104)"><rect x="0" y="0" width="135" height="30" border="1" rx="10" ry="10" style="fill:#FFFF99;stroke:#707070;stroke-width:1px;"/><g transform="translate (6 6) scale(0.005859375)" style="fill:#4F4F4F;"><g transform="translate(7667 2048) scale (1 -1)"><path d="M184 0L184 1462L494 1462L494 256L1087 256L1087 0Z"/></g><g transform="translate(8824 2048) scale (1 -1)"><path d="M147 1407Q147 1556 313 1556Q479 1556 479 1407Q479 1336 437.5 1296.5Q396 1257 313 1257Q147 1257 147 1407ZM465 0L160 0L160 1118L465 1118Z"/></g><g transform="translate(9449 2048) scale (1 -1)"><path d="M1192 0L887 0L887 653Q887 774 844 834.5Q801 895 707 895Q579 895 522 809.5Q465 724 465 526L465 0L160 0L160 1118L393 1118L434 975L451 975Q502 1056 591.5 1097.5Q681 1139 795 1139Q990 1139 1091 1033.5Q1192 928 1192 729Z"/></g><g transform="translate(10795 2048) scale (1 -1)"><path d="M952 0L911 143L895 143Q846 65 756 22.5Q666 -20 551 -20Q354 -20 254 85.5Q154 191 154 389L154 1118L459 1118L459 465Q459 344 502 283.5Q545 223 639 223Q767 223 824 308.5Q881 394 881 592L881 1118L1186 1118L1186 0Z"/></g><g transform="translate(12141 2048) scale (1 -1)"><path d="M389 571L29 1118L375 1118L592 762L811 1118L1157 1118L793 571L1174 0L827 0L592 383L356 0L10 0Z"/></g></g></g><g transform="translate(305,-54)"><rect x="0" y="0" width="135" height="30" border="1" rx="10" ry="10" style="fill:#FFFF99;stroke:#707070;stroke-width:1px;"/><g transform="translate (6 6) scale(0.005859375)" style="fill:#4F4F4F;"><g transform="translate(6966.5 2048) scale (1 -1)"><path d="M1161 0L856 0L856 653Q856 774 815.5 834.5Q775 895 688 895Q571 895 518 809Q465 723 465 526L465 0L160 0L160 1118L393 1118L434 975L451 975Q496 1052 581 1095.5Q666 1139 776 1139Q1027 1139 1116 975L1143 975Q1188 1053 1275.5 1096Q1363 1139 1473 1139Q1663 1139 1760.5 1041.5Q1858 944 1858 729L1858 0L1552 0L1552 653Q1552 774 1511.5 834.5Q1471 895 1384 895Q1272 895 1216.5 815Q1161 735 1161 561Z"/></g><g transform="translate(8977.5 2048) scale (1 -1)"><path d="M870 0L811 152L803 152Q726 55 644.5 17.5Q563 -20 432 -20Q271 -20 178.5 72Q86 164 86 334Q86 512 210.5 596.5Q335 681 586 690L780 696L780 745Q780 915 606 915Q472 915 291 834L190 1040Q383 1141 618 1141Q843 1141 963 1043Q1083 945 1083 745L1083 0ZM780 518L662 514Q529 510 464 466Q399 422 399 332Q399 203 547 203Q653 203 716.5 264Q780 325 780 426Z"/></g><g transform="translate(10214.5 2048) scale (1 -1)"><path d="M614 -20Q92 -20 92 553Q92 838 234 988.5Q376 1139 641 1139Q835 1139 989 1063L899 827Q827 856 765 874.5Q703 893 641 893Q403 893 403 555Q403 227 641 227Q729 227 804 250.5Q879 274 954 324L954 63Q880 16 804.5 -2Q729 -20 614 -20Z"/></g><g transform="translate(11267.5 2048) scale (1 -1)"><path d="M1511 733Q1511 370 1331 175Q1151 -20 815 -20Q479 -20 299 175Q119 370 119 735Q119 1100 299.5 1292.5Q480 1485 817 1485Q1154 1485 1332.5 1291Q1511 1097 1511 733ZM444 733Q444 488 537 364Q630 240 815 240Q1186 240 1186 733Q1186 1227 817 1227Q632 1227 538 1102.5Q444 978 444 733Z"/></g><g transform="translate(12897.5 2048) scale (1 -1)"><path d="M1047 406Q1047 208 904.5 94Q762 -20 508 -20Q274 -20 94 68L94 356Q242 290 344.5 263Q447 236 532 236Q634 236 688.5 275Q743 314 743 391Q743 434 719 467.5Q695 501 648.5 532Q602 563 459 631Q325 694 258 752Q191 810 151 887Q111 964 111 1067Q111 1261 242.5 1372Q374 1483 606 1483Q720 1483 823.5 1456Q927 1429 1040 1380L940 1139Q823 1187 746.5 1206Q670 1225 596 1225Q508 1225 461 1184Q414 1143 414 1077Q414 1036 433 1005.5Q452 975 493.5 946.5Q535 918 690 844Q895 746 971 647.5Q1047 549 1047 406Z"/></g></g></g><g transform="translate(305,3)"><rect x="0" y="0" width="135" height="30" border="1" rx="10" ry="10" style="fill:#FFFF99;stroke:#707070;stroke-width:1px;"/><g transform="translate (6 6) scale(0.005859375)" style="fill:#4F4F4F;"><g transform="translate(6419 2048) scale (1 -1)"><path d="M1079 0L973 348L440 348L334 0L0 0L516 1468L895 1468L1413 0ZM899 608Q752 1081 733.5 1143Q715 1205 707 1241Q674 1113 518 608Z"/></g><g transform="translate(7832 2048) scale (1 -1)"><path d="M1192 0L887 0L887 653Q887 774 844 834.5Q801 895 707 895Q579 895 522 809.5Q465 724 465 526L465 0L160 0L160 1118L393 1118L434 975L451 975Q502 1056 591.5 1097.5Q681 1139 795 1139Q990 1139 1091 1033.5Q1192 928 1192 729Z"/></g><g transform="translate(9178 2048) scale (1 -1)"><path d="M514 -20Q317 -20 204.5 133Q92 286 92 557Q92 832 206.5 985.5Q321 1139 522 1139Q733 1139 844 975L854 975Q831 1100 831 1198L831 1556L1137 1556L1137 0L903 0L844 145L831 145Q727 -20 514 -20ZM621 223Q738 223 792.5 291Q847 359 852 522L852 555Q852 735 796.5 813Q741 891 616 891Q514 891 457.5 804.5Q401 718 401 553Q401 388 458 305.5Q515 223 621 223Z"/></g><g transform="translate(10474 2048) scale (1 -1)"><path d="M784 1139Q846 1139 887 1130L864 844Q827 854 774 854Q628 854 546.5 779Q465 704 465 569L465 0L160 0L160 1118L391 1118L436 930L451 930Q503 1024 591.5 1081.5Q680 1139 784 1139Z"/></g><g transform="translate(11404 2048) scale (1 -1)"><path d="M403 561Q403 395 457.5 310Q512 225 635 225Q757 225 810.5 309.5Q864 394 864 561Q864 727 810 810Q756 893 633 893Q511 893 457 810.5Q403 728 403 561ZM1176 561Q1176 288 1032 134Q888 -20 631 -20Q470 -20 347 50.5Q224 121 158 253Q92 385 92 561Q92 835 235 987Q378 1139 637 1139Q798 1139 921 1069Q1044 999 1110 868Q1176 737 1176 561Z"/></g><g transform="translate(12672 2048) scale (1 -1)"><path d="M147 1407Q147 1556 313 1556Q479 1556 479 1407Q479 1336 437.5 1296.5Q396 1257 313 1257Q147 1257 147 1407ZM465 0L160 0L160 1118L465 1118Z"/></g><g transform="translate(13297 2048) scale (1 -1)"><path d="M514 -20Q317 -20 204.5 133Q92 286 92 557Q92 832 206.5 985.5Q321 1139 522 1139Q733 1139 844 975L854 975Q831 1100 831 1198L831 1556L1137 1556L1137 0L903 0L844 145L831 145Q727 -20 514 -20ZM621 223Q738 223 792.5 291Q847 359 852 522L852 555Q852 735 796.5 813Q741 891 616 891Q514 891 457.5 804.5Q401 718 401 553Q401 388 458 305.5Q515 223 621 223Z"/></g></g></g><g transform="translate(305,53)"><rect x="0" y="0" width="135" height="30" border="1" rx="10" ry="10" style="fill:#FFFF99;stroke:#707070;stroke-width:1px;"/><g transform="translate (6 6) scale(0.005859375)" style="fill:#4F4F4F;"><g transform="translate(8718.5 2048) scale (1 -1)"><path d="M731 0L66 0L66 176L244 258L244 1204L66 1286L66 1462L731 1462L731 1286L553 1204L553 258L731 176Z"/></g><g transform="translate(9515.5 2048) scale (1 -1)"><path d="M1511 733Q1511 370 1331 175Q1151 -20 815 -20Q479 -20 299 175Q119 370 119 735Q119 1100 299.5 1292.5Q480 1485 817 1485Q1154 1485 1332.5 1291Q1511 1097 1511 733ZM444 733Q444 488 537 364Q630 240 815 240Q1186 240 1186 733Q1186 1227 817 1227Q632 1227 538 1102.5Q444 978 444 733Z"/></g><g transform="translate(11145.5 2048) scale (1 -1)"><path d="M1047 406Q1047 208 904.5 94Q762 -20 508 -20Q274 -20 94 68L94 356Q242 290 344.5 263Q447 236 532 236Q634 236 688.5 275Q743 314 743 391Q743 434 719 467.5Q695 501 648.5 532Q602 563 459 631Q325 694 258 752Q191 810 151 887Q111 964 111 1067Q111 1261 242.5 1372Q374 1483 606 1483Q720 1483 823.5 1456Q927 1429 1040 1380L940 1139Q823 1187 746.5 1206Q670 1225 596 1225Q508 1225 461 1184Q414 1143 414 1077Q414 1036 433 1005.5Q452 975 493.5 946.5Q535 918 690 844Q895 746 971 647.5Q1047 549 1047 406Z"/></g></g></g><g transform="translate(305,103)"><rect x="0" y="0" width="135" height="30" border="1" rx="10" ry="10" style="fill:#FFFF99;stroke:#707070;stroke-width:1px;"/><g transform="translate (6 6) scale(0.005859375)" style="fill:#4F4F4F;"><g transform="translate(6105.5 2048) scale (1 -1)"><path d="M1047 406Q1047 208 904.5 94Q762 -20 508 -20Q274 -20 94 68L94 356Q242 290 344.5 263Q447 236 532 236Q634 236 688.5 275Q743 314 743 391Q743 434 719 467.5Q695 501 648.5 532Q602 563 459 631Q325 694 258 752Q191 810 151 887Q111 964 111 1067Q111 1261 242.5 1372Q374 1483 606 1483Q720 1483 823.5 1456Q927 1429 1040 1380L940 1139Q823 1187 746.5 1206Q670 1225 596 1225Q508 1225 461 1184Q414 1143 414 1077Q414 1036 433 1005.5Q452 975 493.5 946.5Q535 918 690 844Q895 746 971 647.5Q1047 549 1047 406Z"/></g><g transform="translate(7233.5 2048) scale (1 -1)"><path d="M0 1118L334 1118L545 489Q572 407 582 295L588 295Q599 398 631 489L838 1118L1165 1118L692 -143Q627 -318 506.5 -405Q386 -492 225 -492Q146 -492 70 -475L70 -233Q125 -246 190 -246Q271 -246 331.5 -196.5Q392 -147 426 -47L444 8Z"/></g><g transform="translate(8398.5 2048) scale (1 -1)"><path d="M1161 0L856 0L856 653Q856 774 815.5 834.5Q775 895 688 895Q571 895 518 809Q465 723 465 526L465 0L160 0L160 1118L393 1118L434 975L451 975Q496 1052 581 1095.5Q666 1139 776 1139Q1027 1139 1116 975L1143 975Q1188 1053 1275.5 1096Q1363 1139 1473 1139Q1663 1139 1760.5 1041.5Q1858 944 1858 729L1858 0L1552 0L1552 653Q1552 774 1511.5 834.5Q1471 895 1384 895Q1272 895 1216.5 815Q1161 735 1161 561Z"/></g><g transform="translate(10409.5 2048) scale (1 -1)"><path d="M782 1139Q980 1139 1092 984.5Q1204 830 1204 561Q1204 284 1088.5 132Q973 -20 774 -20Q577 -20 465 123L444 123L393 0L160 0L160 1556L465 1556L465 1194Q465 1125 453 973L465 973Q572 1139 782 1139ZM684 895Q571 895 519 825.5Q467 756 465 596L465 563Q465 383 518.5 305Q572 227 688 227Q782 227 837.5 313.5Q893 400 893 565Q893 730 837 812.5Q781 895 684 895Z"/></g><g transform="translate(11705.5 2048) scale (1 -1)"><path d="M147 1407Q147 1556 313 1556Q479 1556 479 1407Q479 1336 437.5 1296.5Q396 1257 313 1257Q147 1257 147 1407ZM465 0L160 0L160 1118L465 1118Z"/></g><g transform="translate(12330.5 2048) scale (1 -1)"><path d="M623 922Q526 922 471 860.5Q416 799 408 686L836 686Q834 799 777 860.5Q720 922 623 922ZM666 -20Q396 -20 244 129Q92 278 92 551Q92 832 232.5 985.5Q373 1139 621 1139Q858 1139 990 1004Q1122 869 1122 631L1122 483L401 483Q406 353 478 280Q550 207 680 207Q781 207 871 228Q961 249 1059 295L1059 59Q979 19 888 -0.5Q797 -20 666 -20Z"/></g><g transform="translate(13540.5 2048) scale (1 -1)"><path d="M1192 0L887 0L887 653Q887 774 844 834.5Q801 895 707 895Q579 895 522 809.5Q465 724 465 526L465 0L160 0L160 1118L393 1118L434 975L451 975Q502 1056 591.5 1097.5Q681 1139 795 1139Q990 1139 1091 1033.5Q1192 928 1192 729Z"/></g></g></g><g transform="translate(85,-258)"><rect x="0" y="0" width="41" height="30" border="1" rx="10" ry="10" style="fill:#FFFF00;stroke:#707070;stroke-width:1px;"/><g transform="translate (6 6) scale(0.005859375)" style="fill:#4F4F4F;"><g transform="translate(9.166666666666515 2048) scale (1 -1)"><path d="M184 1462L639 1462Q950 1462 1090.5 1373.5Q1231 1285 1231 1092Q1231 961 1169.5 877Q1108 793 1006 776L1006 766Q1145 735 1206.5 650Q1268 565 1268 424Q1268 224 1123.5 112Q979 0 731 0L184 0ZM494 883L674 883Q800 883 856.5 922Q913 961 913 1051Q913 1135 851.5 1171.5Q790 1208 657 1208L494 1208ZM494 637L494 256L696 256Q824 256 885 305Q946 354 946 455Q946 637 686 637Z"/></g><g transform="translate(1385.1666666666665 2048) scale (1 -1)"><path d="M731 0L66 0L66 176L244 258L244 1204L66 1286L66 1462L731 1462L731 1286L553 1204L553 258L731 176Z"/></g><g transform="translate(2182.1666666666665 2048) scale (1 -1)"><path d="M1511 733Q1511 370 1331 175Q1151 -20 815 -20Q479 -20 299 175Q119 370 119 735Q119 1100 299.5 1292.5Q480 1485 817 1485Q1154 1485 1332.5 1291Q1511 1097 1511 733ZM444 733Q444 488 537 364Q630 240 815 240Q1186 240 1186 733Q1186 1227 817 1227Q632 1227 538 1102.5Q444 978 444 733Z"/></g><g transform="translate(3812.1666666666665 2048) scale (1 -1)"><path d="M1047 406Q1047 208 904.5 94Q762 -20 508 -20Q274 -20 94 68L94 356Q242 290 344.5 263Q447 236 532 236Q634 236 688.5 275Q743 314 743 391Q743 434 719 467.5Q695 501 648.5 532Q602 563 459 631Q325 694 258 752Q191 810 151 887Q111 964 111 1067Q111 1261 242.5 1372Q374 1483 606 1483Q720 1483 823.5 1456Q927 1429 1040 1380L940 1139Q823 1187 746.5 1206Q670 1225 596 1225Q508 1225 461 1184Q414 1143 414 1077Q414 1036 433 1005.5Q452 975 493.5 946.5Q535 918 690 844Q895 746 971 647.5Q1047 549 1047 406Z"/></g></g></g><g transform="translate(85,-208)"><rect x="0" y="0" width="112" height="30" border="1" rx="10" ry="10" style="fill:#FFFF00;stroke:#707070;stroke-width:1px;"/><g transform="translate (6 6) scale(0.005859375)" style="fill:#4F4F4F;"><g transform="translate(55.83333333333394 2048) scale (1 -1)"><path d="M803 0L451 1147L442 1147Q461 797 461 680L461 0L184 0L184 1462L606 1462L952 344L958 344L1325 1462L1747 1462L1747 0L1458 0L1458 692Q1458 741 1459.5 805Q1461 869 1473 1145L1464 1145L1087 0Z"/></g><g transform="translate(1986.833333333334 2048) scale (1 -1)"><path d="M403 561Q403 395 457.5 310Q512 225 635 225Q757 225 810.5 309.5Q864 394 864 561Q864 727 810 810Q756 893 633 893Q511 893 457 810.5Q403 728 403 561ZM1176 561Q1176 288 1032 134Q888 -20 631 -20Q470 -20 347 50.5Q224 121 158 253Q92 385 92 561Q92 835 235 987Q378 1139 637 1139Q798 1139 921 1069Q1044 999 1110 868Q1176 737 1176 561Z"/></g><g transform="translate(3254.833333333334 2048) scale (1 -1)"><path d="M782 1139Q980 1139 1092 984.5Q1204 830 1204 561Q1204 284 1088.5 132Q973 -20 774 -20Q577 -20 465 123L444 123L393 0L160 0L160 1556L465 1556L465 1194Q465 1125 453 973L465 973Q572 1139 782 1139ZM684 895Q571 895 519 825.5Q467 756 465 596L465 563Q465 383 518.5 305Q572 227 688 227Q782 227 837.5 313.5Q893 400 893 565Q893 730 837 812.5Q781 895 684 895Z"/></g><g transform="translate(4550.833333333334 2048) scale (1 -1)"><path d="M147 1407Q147 1556 313 1556Q479 1556 479 1407Q479 1336 437.5 1296.5Q396 1257 313 1257Q147 1257 147 1407ZM465 0L160 0L160 1118L465 1118Z"/></g><g transform="translate(5175.833333333334 2048) scale (1 -1)"><path d="M465 0L160 0L160 1556L465 1556Z"/></g><g transform="translate(5800.833333333334 2048) scale (1 -1)"><path d="M623 922Q526 922 471 860.5Q416 799 408 686L836 686Q834 799 777 860.5Q720 922 623 922ZM666 -20Q396 -20 244 129Q92 278 92 551Q92 832 232.5 985.5Q373 1139 621 1139Q858 1139 990 1004Q1122 869 1122 631L1122 483L401 483Q406 353 478 280Q550 207 680 207Q781 207 871 228Q961 249 1059 295L1059 59Q979 19 888 -0.5Q797 -20 666 -20Z"/></g><g transform="translate(7542.833333333334 2048) scale (1 -1)"><path d="M778 889L514 889L514 0L209 0L209 889L41 889L41 1036L209 1118L209 1200Q209 1391 303 1479Q397 1567 604 1567Q762 1567 885 1520L807 1296Q715 1325 637 1325Q572 1325 543 1286.5Q514 1248 514 1188L514 1118L778 1118ZM940 1407Q940 1556 1106 1556Q1272 1556 1272 1407Q1272 1336 1230.5 1296.5Q1189 1257 1106 1257Q940 1257 940 1407ZM1258 0L953 0L953 1118L1258 1118Z"/></g><g transform="translate(8959.833333333334 2048) scale (1 -1)"><path d="M784 1139Q846 1139 887 1130L864 844Q827 854 774 854Q628 854 546.5 779Q465 704 465 569L465 0L160 0L160 1118L391 1118L436 930L451 930Q503 1024 591.5 1081.5Q680 1139 784 1139Z"/></g><g transform="translate(9889.833333333334 2048) scale (1 -1)"><path d="M1161 0L856 0L856 653Q856 774 815.5 834.5Q775 895 688 895Q571 895 518 809Q465 723 465 526L465 0L160 0L160 1118L393 1118L434 975L451 975Q496 1052 581 1095.5Q666 1139 776 1139Q1027 1139 1116 975L1143 975Q1188 1053 1275.5 1096Q1363 1139 1473 1139Q1663 1139 1760.5 1041.5Q1858 944 1858 729L1858 0L1552 0L1552 653Q1552 774 1511.5 834.5Q1471 895 1384 895Q1272 895 1216.5 815Q1161 735 1161 561Z"/></g><g transform="translate(11900.833333333334 2048) scale (1 -1)"><path d="M1079 0L993 391L879 885L870 885L666 0L338 0L20 1118L324 1118L453 623Q475 535 514 256L522 256Q526 332 557 497L573 582L711 1118L1047 1118L1178 582Q1190 527 1207.5 420.5Q1225 314 1227 256L1235 256Q1246 345 1266 458.5Q1286 572 1300 623L1434 1118L1733 1118L1411 0Z"/></g><g transform="translate(13653.833333333334 2048) scale (1 -1)"><path d="M870 0L811 152L803 152Q726 55 644.5 17.5Q563 -20 432 -20Q271 -20 178.5 72Q86 164 86 334Q86 512 210.5 596.5Q335 681 586 690L780 696L780 745Q780 915 606 915Q472 915 291 834L190 1040Q383 1141 618 1141Q843 1141 963 1043Q1083 945 1083 745L1083 0ZM780 518L662 514Q529 510 464 466Q399 422 399 332Q399 203 547 203Q653 203 716.5 264Q780 325 780 426Z"/></g><g transform="translate(14890.833333333334 2048) scale (1 -1)"><path d="M784 1139Q846 1139 887 1130L864 844Q827 854 774 854Q628 854 546.5 779Q465 704 465 569L465 0L160 0L160 1118L391 1118L436 930L451 930Q503 1024 591.5 1081.5Q680 1139 784 1139Z"/></g><g transform="translate(15820.833333333334 2048) scale (1 -1)"><path d="M623 922Q526 922 471 860.5Q416 799 408 686L836 686Q834 799 777 860.5Q720 922 623 922ZM666 -20Q396 -20 244 129Q92 278 92 551Q92 832 232.5 985.5Q373 1139 621 1139Q858 1139 990 1004Q1122 869 1122 631L1122 483L401 483Q406 353 478 280Q550 207 680 207Q781 207 871 228Q961 249 1059 295L1059 59Q979 19 888 -0.5Q797 -20 666 -20Z"/></g></g></g><g transform="translate(78,208)"><rect x="0" y="0" width="57" height="30" border="1" rx="10" ry="10" style="fill:#FFFF00;stroke:#707070;stroke-width:1px;"/><g transform="translate (6 6) scale(0.005859375)" style="fill:#4F4F4F;"><g transform="translate(63 2048) scale (1 -1)"><path d="M739 821L1319 821L1319 63Q1178 17 1053.5 -1.5Q929 -20 799 -20Q468 -20 293.5 174.5Q119 369 119 733Q119 1087 321.5 1285Q524 1483 883 1483Q1108 1483 1317 1393L1214 1145Q1054 1225 881 1225Q680 1225 559 1090Q438 955 438 727Q438 489 535.5 363.5Q633 238 819 238Q916 238 1016 258L1016 563L739 563Z"/></g><g transform="translate(1546 2048) scale (1 -1)"><path d="M784 1139Q846 1139 887 1130L864 844Q827 854 774 854Q628 854 546.5 779Q465 704 465 569L465 0L160 0L160 1118L391 1118L436 930L451 930Q503 1024 591.5 1081.5Q680 1139 784 1139Z"/></g><g transform="translate(2476 2048) scale (1 -1)"><path d="M870 0L811 152L803 152Q726 55 644.5 17.5Q563 -20 432 -20Q271 -20 178.5 72Q86 164 86 334Q86 512 210.5 596.5Q335 681 586 690L780 696L780 745Q780 915 606 915Q472 915 291 834L190 1040Q383 1141 618 1141Q843 1141 963 1043Q1083 945 1083 745L1083 0ZM780 518L662 514Q529 510 464 466Q399 422 399 332Q399 203 547 203Q653 203 716.5 264Q780 325 780 426Z"/></g><g transform="translate(3713 2048) scale (1 -1)"><path d="M778 889L514 889L514 0L209 0L209 889L41 889L41 1036L209 1118L209 1200Q209 1391 303 1479Q397 1567 604 1567Q762 1567 885 1520L807 1296Q715 1325 637 1325Q572 1325 543 1286.5Q514 1248 514 1188L514 1118L778 1118ZM940 1407Q940 1556 1106 1556Q1272 1556 1272 1407Q1272 1336 1230.5 1296.5Q1189 1257 1106 1257Q940 1257 940 1407ZM1258 0L953 0L953 1118L1258 1118Z"/></g><g transform="translate(5130 2048) scale (1 -1)"><path d="M453 608L586 778L899 1118L1243 1118L799 633L1270 0L918 0L596 453L465 348L465 0L160 0L160 1556L465 1556L465 862L449 608Z"/></g><g transform="translate(6400 2048) scale (1 -1)"><path d="M870 0L811 152L803 152Q726 55 644.5 17.5Q563 -20 432 -20Q271 -20 178.5 72Q86 164 86 334Q86 512 210.5 596.5Q335 681 586 690L780 696L780 745Q780 915 606 915Q472 915 291 834L190 1040Q383 1141 618 1141Q843 1141 963 1043Q1083 945 1083 745L1083 0ZM780 518L662 514Q529 510 464 466Q399 422 399 332Q399 203 547 203Q653 203 716.5 264Q780 325 780 426Z"/></g></g></g><g transform="translate(78,258)"><rect x="0" y="0" width="64" height="30" border="1" rx="10" ry="10" style="fill:#FFFF00;stroke:#707070;stroke-width:1px;"/><g transform="translate (6 6) scale(0.005859375)" style="fill:#4F4F4F;"><g transform="translate(12.83333333333303 2048) scale (1 -1)"><path d="M748 0L438 0L438 1204L41 1204L41 1462L1145 1462L1145 1204L748 1204Z"/></g><g transform="translate(1198.833333333333 2048) scale (1 -1)"><path d="M147 1407Q147 1556 313 1556Q479 1556 479 1407Q479 1336 437.5 1296.5Q396 1257 313 1257Q147 1257 147 1407ZM465 0L160 0L160 1118L465 1118Z"/></g><g transform="translate(1823.833333333333 2048) scale (1 -1)"><path d="M940 332Q940 160 820.5 70Q701 -20 463 -20Q341 -20 255 -3.5Q169 13 94 45L94 297Q179 257 285.5 230Q392 203 473 203Q639 203 639 299Q639 335 617 357.5Q595 380 541 408.5Q487 437 397 475Q268 529 207.5 575Q147 621 119.5 680.5Q92 740 92 827Q92 976 207.5 1057.5Q323 1139 535 1139Q737 1139 928 1051L836 831Q752 867 679 890Q606 913 530 913Q395 913 395 840Q395 799 438.5 769Q482 739 629 680Q760 627 821 581Q882 535 911 475Q940 415 940 332Z"/></g><g transform="translate(2841.833333333333 2048) scale (1 -1)"><path d="M453 608L586 778L899 1118L1243 1118L799 633L1270 0L918 0L596 453L465 348L465 0L160 0L160 1556L465 1556L465 862L449 608Z"/></g><g transform="translate(4111.833333333333 2048) scale (1 -1)"><path d="M870 0L811 152L803 152Q726 55 644.5 17.5Q563 -20 432 -20Q271 -20 178.5 72Q86 164 86 334Q86 512 210.5 596.5Q335 681 586 690L780 696L780 745Q780 915 606 915Q472 915 291 834L190 1040Q383 1141 618 1141Q843 1141 963 1043Q1083 945 1083 745L1083 0ZM780 518L662 514Q529 510 464 466Q399 422 399 332Q399 203 547 203Q653 203 716.5 264Q780 325 780 426ZM441 1241L441 1268Q613 1468 676 1569L1018 1569L1018 1548Q966 1496 840.5 1393.5Q715 1291 644 1241Z"/></g><g transform="translate(5348.833333333333 2048) scale (1 -1)"><path d="M784 1139Q846 1139 887 1130L864 844Q827 854 774 854Q628 854 546.5 779Q465 704 465 569L465 0L160 0L160 1118L391 1118L436 930L451 930Q503 1024 591.5 1081.5Q680 1139 784 1139Z"/></g><g transform="translate(6278.833333333333 2048) scale (1 -1)"><path d="M1192 0L887 0L887 653Q887 774 844 834.5Q801 895 707 895Q579 895 522 809.5Q465 724 465 526L465 0L160 0L160 1118L393 1118L434 975L451 975Q502 1056 591.5 1097.5Q681 1139 795 1139Q990 1139 1091 1033.5Q1192 928 1192 729Z"/></g><g transform="translate(7624.833333333333 2048) scale (1 -1)"><path d="M870 0L811 152L803 152Q726 55 644.5 17.5Q563 -20 432 -20Q271 -20 178.5 72Q86 164 86 334Q86 512 210.5 596.5Q335 681 586 690L780 696L780 745Q780 915 606 915Q472 915 291 834L190 1040Q383 1141 618 1141Q843 1141 963 1043Q1083 945 1083 745L1083 0ZM780 518L662 514Q529 510 464 466Q399 422 399 332Q399 203 547 203Q653 203 716.5 264Q780 325 780 426Z"/></g></g></g><g transform="translate(-422,-197)"><rect x="0" y="0" width="86" height="30" border="1" rx="10" ry="10" style="fill:#FFCC00;stroke:#707070;stroke-width:1px;"/><g transform="translate (6 6) scale(0.005859375)" style="fill:#4F4F4F;"><g transform="translate(76.66666666666697 2048) scale (1 -1)"><path d="M1360 0L1008 0L625 616L494 522L494 0L184 0L184 1462L494 1462L494 793L616 965L1012 1462L1356 1462L846 815Z"/></g><g transform="translate(1436.666666666667 2048) scale (1 -1)"><path d="M870 0L811 152L803 152Q726 55 644.5 17.5Q563 -20 432 -20Q271 -20 178.5 72Q86 164 86 334Q86 512 210.5 596.5Q335 681 586 690L780 696L780 745Q780 915 606 915Q472 915 291 834L190 1040Q383 1141 618 1141Q843 1141 963 1043Q1083 945 1083 745L1083 0ZM780 518L662 514Q529 510 464 466Q399 422 399 332Q399 203 547 203Q653 203 716.5 264Q780 325 780 426Z"/></g><g transform="translate(2673.666666666667 2048) scale (1 -1)"><path d="M1192 0L887 0L887 653Q887 774 844 834.5Q801 895 707 895Q579 895 522 809.5Q465 724 465 526L465 0L160 0L160 1118L393 1118L434 975L451 975Q502 1056 591.5 1097.5Q681 1139 795 1139Q990 1139 1091 1033.5Q1192 928 1192 729Z"/></g><g transform="translate(4019.666666666667 2048) scale (1 -1)"><path d="M614 -20Q92 -20 92 553Q92 838 234 988.5Q376 1139 641 1139Q835 1139 989 1063L899 827Q827 856 765 874.5Q703 893 641 893Q403 893 403 555Q403 227 641 227Q729 227 804 250.5Q879 274 954 324L954 63Q880 16 804.5 -2Q729 -20 614 -20Z"/></g><g transform="translate(5072.666666666667 2048) scale (1 -1)"><path d="M623 922Q526 922 471 860.5Q416 799 408 686L836 686Q834 799 777 860.5Q720 922 623 922ZM666 -20Q396 -20 244 129Q92 278 92 551Q92 832 232.5 985.5Q373 1139 621 1139Q858 1139 990 1004Q1122 869 1122 631L1122 483L401 483Q406 353 478 280Q550 207 680 207Q781 207 871 228Q961 249 1059 295L1059 59Q979 19 888 -0.5Q797 -20 666 -20Z"/></g><g transform="translate(6282.666666666667 2048) scale (1 -1)"><path d="M465 0L160 0L160 1556L465 1556Z"/></g><g transform="translate(6907.666666666667 2048) scale (1 -1)"><path d="M870 0L811 152L803 152Q726 55 644.5 17.5Q563 -20 432 -20Q271 -20 178.5 72Q86 164 86 334Q86 512 210.5 596.5Q335 681 586 690L780 696L780 745Q780 915 606 915Q472 915 291 834L190 1040Q383 1141 618 1141Q843 1141 963 1043Q1083 945 1083 745L1083 0ZM780 518L662 514Q529 510 464 466Q399 422 399 332Q399 203 547 203Q653 203 716.5 264Q780 325 780 426ZM441 1241L441 1268Q613 1468 676 1569L1018 1569L1018 1548Q966 1496 840.5 1393.5Q715 1291 644 1241Z"/></g><g transform="translate(8144.666666666667 2048) scale (1 -1)"><path d="M784 1139Q846 1139 887 1130L864 844Q827 854 774 854Q628 854 546.5 779Q465 704 465 569L465 0L160 0L160 1118L391 1118L436 930L451 930Q503 1024 591.5 1081.5Q680 1139 784 1139ZM952 1569L952 1542Q868 1458 797.5 1374.5Q727 1291 696 1241L339 1241Q310 1288 256 1353.5Q202 1419 83 1542L83 1569L286 1569Q433 1476 515 1393Q599 1480 749 1569Z"/></g><g transform="translate(9074.666666666668 2048) scale (1 -1)"><path d="M940 332Q940 160 820.5 70Q701 -20 463 -20Q341 -20 255 -3.5Q169 13 94 45L94 297Q179 257 285.5 230Q392 203 473 203Q639 203 639 299Q639 335 617 357.5Q595 380 541 408.5Q487 437 397 475Q268 529 207.5 575Q147 621 119.5 680.5Q92 740 92 827Q92 976 207.5 1057.5Q323 1139 535 1139Q737 1139 928 1051L836 831Q752 867 679 890Q606 913 530 913Q395 913 395 840Q395 799 438.5 769Q482 739 629 680Q760 627 821 581Q882 535 911 475Q940 415 940 332Z"/></g><g transform="translate(10092.666666666668 2048) scale (1 -1)"><path d="M453 608L586 778L899 1118L1243 1118L799 633L1270 0L918 0L596 453L465 348L465 0L160 0L160 1556L465 1556L465 862L449 608Z"/></g><g transform="translate(11362.666666666668 2048) scale (1 -1)"><path d="M623 922Q526 922 471 860.5Q416 799 408 686L836 686Q834 799 777 860.5Q720 922 623 922ZM666 -20Q396 -20 244 129Q92 278 92 551Q92 832 232.5 985.5Q373 1139 621 1139Q858 1139 990 1004Q1122 869 1122 631L1122 483L401 483Q406 353 478 280Q550 207 680 207Q781 207 871 228Q961 249 1059 295L1059 59Q979 19 888 -0.5Q797 -20 666 -20ZM447 1241L447 1268Q619 1468 682 1569L1024 1569L1024 1548Q972 1496 846.5 1393.5Q721 1291 650 1241Z"/></g></g></g><g transform="translate(-511,-222)"><rect x="0" y="0" width="69" height="30" border="1" rx="10" ry="10" style="fill:#FFFF00;stroke:#707070;stroke-width:1px;"/><g transform="translate (6 6) scale(0.005859375)" style="fill:#4F4F4F;"><g transform="translate(57 2048) scale (1 -1)"><path d="M1511 733Q1511 370 1331 175Q1151 -20 815 -20Q479 -20 299 175Q119 370 119 735Q119 1100 299.5 1292.5Q480 1485 817 1485Q1154 1485 1332.5 1291Q1511 1097 1511 733ZM444 733Q444 488 537 364Q630 240 815 240Q1186 240 1186 733Q1186 1227 817 1227Q632 1227 538 1102.5Q444 978 444 733Z"/></g><g transform="translate(1687 2048) scale (1 -1)"><path d="M778 889L514 889L514 0L209 0L209 889L41 889L41 1036L209 1118L209 1200Q209 1391 303 1479Q397 1567 604 1567Q762 1567 885 1520L807 1296Q715 1325 637 1325Q572 1325 543 1286.5Q514 1248 514 1188L514 1118L778 1118ZM1571 889L1307 889L1307 0L1002 0L1002 889L834 889L834 1036L1002 1118L1002 1200Q1002 1391 1096 1479Q1190 1567 1397 1567Q1555 1567 1678 1520L1600 1296Q1508 1325 1430 1325Q1365 1325 1336 1286.5Q1307 1248 1307 1188L1307 1118L1571 1118ZM1730 1407Q1730 1556 1896 1556Q2062 1556 2062 1407Q2062 1336 2020.5 1296.5Q1979 1257 1896 1257Q1730 1257 1730 1407ZM2048 0L1743 0L1743 1118L2048 1118Z"/></g><g transform="translate(3895 2048) scale (1 -1)"><path d="M614 -20Q92 -20 92 553Q92 838 234 988.5Q376 1139 641 1139Q835 1139 989 1063L899 827Q827 856 765 874.5Q703 893 641 893Q403 893 403 555Q403 227 641 227Q729 227 804 250.5Q879 274 954 324L954 63Q880 16 804.5 -2Q729 -20 614 -20Z"/></g><g transform="translate(4948 2048) scale (1 -1)"><path d="M623 922Q526 922 471 860.5Q416 799 408 686L836 686Q834 799 777 860.5Q720 922 623 922ZM666 -20Q396 -20 244 129Q92 278 92 551Q92 832 232.5 985.5Q373 1139 621 1139Q858 1139 990 1004Q1122 869 1122 631L1122 483L401 483Q406 353 478 280Q550 207 680 207Q781 207 871 228Q961 249 1059 295L1059 59Q979 19 888 -0.5Q797 -20 666 -20Z"/></g><g transform="translate(6158 2048) scale (1 -1)"><path d="M1047 1135Q1047 998 964 902Q881 806 731 770L731 764Q908 742 999 656.5Q1090 571 1090 426Q1090 215 937 97.5Q784 -20 500 -20Q262 -20 78 59L78 322Q163 279 265 252Q367 225 467 225Q620 225 693 277Q766 329 766 444Q766 547 682 590Q598 633 414 633L303 633L303 870L416 870Q586 870 664.5 914.5Q743 959 743 1067Q743 1233 535 1233Q463 1233 388.5 1209Q314 1185 223 1126L80 1339Q280 1483 557 1483Q784 1483 915.5 1391Q1047 1299 1047 1135Z"/></g><g transform="translate(7329 2048) scale (1 -1)"><path d="M72 621Q72 1055 255.5 1267Q439 1479 805 1479Q930 1479 1001 1464L1001 1217Q912 1237 825 1237Q666 1237 565.5 1189Q465 1141 415 1047Q365 953 356 780L369 780Q468 950 686 950Q882 950 993 827Q1104 704 1104 487Q1104 253 972 116.5Q840 -20 606 -20Q444 -20 323.5 55Q203 130 137.5 274Q72 418 72 621ZM600 227Q699 227 752 293.5Q805 360 805 483Q805 590 755.5 651.5Q706 713 606 713Q512 713 445.5 652Q379 591 379 510Q379 391 441.5 309Q504 227 600 227Z"/></g><g transform="translate(8500 2048) scale (1 -1)"><path d="M614 934Q826 934 951.5 815Q1077 696 1077 489Q1077 244 926 112Q775 -20 494 -20Q250 -20 100 59L100 326Q179 284 284 257.5Q389 231 483 231Q766 231 766 463Q766 684 473 684Q420 684 356 673.5Q292 663 252 651L129 717L184 1462L977 1462L977 1200L455 1200L428 913L463 920Q524 934 614 934Z"/></g></g></g><g transform="translate(-521,-172)"><rect x="0" y="0" width="79" height="30" border="1" rx="10" ry="10" style="fill:#FFFF00;stroke:#707070;stroke-width:1px;"/><g transform="translate (6 6) scale(0.005859375)" style="fill:#4F4F4F;"><g transform="translate(67.83333333333303 2048) scale (1 -1)"><path d="M184 0L184 1462L494 1462L494 256L1087 256L1087 0Z"/></g><g transform="translate(1224.833333333333 2048) scale (1 -1)"><path d="M147 1407Q147 1556 313 1556Q479 1556 479 1407Q479 1336 437.5 1296.5Q396 1257 313 1257Q147 1257 147 1407ZM465 0L160 0L160 1118L465 1118Z"/></g><g transform="translate(1849.833333333333 2048) scale (1 -1)"><path d="M782 1139Q980 1139 1092 984.5Q1204 830 1204 561Q1204 284 1088.5 132Q973 -20 774 -20Q577 -20 465 123L444 123L393 0L160 0L160 1556L465 1556L465 1194Q465 1125 453 973L465 973Q572 1139 782 1139ZM684 895Q571 895 519 825.5Q467 756 465 596L465 563Q465 383 518.5 305Q572 227 688 227Q782 227 837.5 313.5Q893 400 893 565Q893 730 837 812.5Q781 895 684 895Z"/></g><g transform="translate(3145.833333333333 2048) scale (1 -1)"><path d="M784 1139Q846 1139 887 1130L864 844Q827 854 774 854Q628 854 546.5 779Q465 704 465 569L465 0L160 0L160 1118L391 1118L436 930L451 930Q503 1024 591.5 1081.5Q680 1139 784 1139Z"/></g><g transform="translate(4075.833333333333 2048) scale (1 -1)"><path d="M623 922Q526 922 471 860.5Q416 799 408 686L836 686Q834 799 777 860.5Q720 922 623 922ZM666 -20Q396 -20 244 129Q92 278 92 551Q92 832 232.5 985.5Q373 1139 621 1139Q858 1139 990 1004Q1122 869 1122 631L1122 483L401 483Q406 353 478 280Q550 207 680 207Q781 207 871 228Q961 249 1059 295L1059 59Q979 19 888 -0.5Q797 -20 666 -20Z"/></g><g transform="translate(5285.833333333333 2048) scale (1 -1)"><path d="M1511 733Q1511 370 1331 175Q1151 -20 815 -20Q479 -20 299 175Q119 370 119 735Q119 1100 299.5 1292.5Q480 1485 817 1485Q1154 1485 1332.5 1291Q1511 1097 1511 733ZM444 733Q444 488 537 364Q630 240 815 240Q1186 240 1186 733Q1186 1227 817 1227Q632 1227 538 1102.5Q444 978 444 733Z"/></g><g transform="translate(6915.833333333333 2048) scale (1 -1)"><path d="M778 889L514 889L514 0L209 0L209 889L41 889L41 1036L209 1118L209 1200Q209 1391 303 1479Q397 1567 604 1567Q762 1567 885 1520L807 1296Q715 1325 637 1325Q572 1325 543 1286.5Q514 1248 514 1188L514 1118L778 1118ZM1571 889L1307 889L1307 0L1002 0L1002 889L834 889L834 1036L1002 1118L1002 1200Q1002 1391 1096 1479Q1190 1567 1397 1567Q1555 1567 1678 1520L1600 1296Q1508 1325 1430 1325Q1365 1325 1336 1286.5Q1307 1248 1307 1188L1307 1118L1571 1118ZM1730 1407Q1730 1556 1896 1556Q2062 1556 2062 1407Q2062 1336 2020.5 1296.5Q1979 1257 1896 1257Q1730 1257 1730 1407ZM2048 0L1743 0L1743 1118L2048 1118Z"/></g><g transform="translate(9123.833333333332 2048) scale (1 -1)"><path d="M614 -20Q92 -20 92 553Q92 838 234 988.5Q376 1139 641 1139Q835 1139 989 1063L899 827Q827 856 765 874.5Q703 893 641 893Q403 893 403 555Q403 227 641 227Q729 227 804 250.5Q879 274 954 324L954 63Q880 16 804.5 -2Q729 -20 614 -20Z"/></g><g transform="translate(10176.833333333332 2048) scale (1 -1)"><path d="M623 922Q526 922 471 860.5Q416 799 408 686L836 686Q834 799 777 860.5Q720 922 623 922ZM666 -20Q396 -20 244 129Q92 278 92 551Q92 832 232.5 985.5Q373 1139 621 1139Q858 1139 990 1004Q1122 869 1122 631L1122 483L401 483Q406 353 478 280Q550 207 680 207Q781 207 871 228Q961 249 1059 295L1059 59Q979 19 888 -0.5Q797 -20 666 -20Z"/></g></g></g><g transform="translate(-375,-21)"><rect x="0" y="0" width="63" height="30" border="1" rx="10" ry="10" style="fill:#FFCC00;stroke:#707070;stroke-width:1px;"/><g transform="translate (6 6) scale(0.005859375)" style="fill:#4F4F4F;"><g transform="translate(72 2048) scale (1 -1)"><path d="M739 821L1319 821L1319 63Q1178 17 1053.5 -1.5Q929 -20 799 -20Q468 -20 293.5 174.5Q119 369 119 733Q119 1087 321.5 1285Q524 1483 883 1483Q1108 1483 1317 1393L1214 1145Q1054 1225 881 1225Q680 1225 559 1090Q438 955 438 727Q438 489 535.5 363.5Q633 238 819 238Q916 238 1016 258L1016 563L739 563Z"/></g><g transform="translate(1555 2048) scale (1 -1)"><path d="M784 1139Q846 1139 887 1130L864 844Q827 854 774 854Q628 854 546.5 779Q465 704 465 569L465 0L160 0L160 1118L391 1118L436 930L451 930Q503 1024 591.5 1081.5Q680 1139 784 1139Z"/></g><g transform="translate(2485 2048) scale (1 -1)"><path d="M870 0L811 152L803 152Q726 55 644.5 17.5Q563 -20 432 -20Q271 -20 178.5 72Q86 164 86 334Q86 512 210.5 596.5Q335 681 586 690L780 696L780 745Q780 915 606 915Q472 915 291 834L190 1040Q383 1141 618 1141Q843 1141 963 1043Q1083 945 1083 745L1083 0ZM780 518L662 514Q529 510 464 466Q399 422 399 332Q399 203 547 203Q653 203 716.5 264Q780 325 780 426Z"/></g><g transform="translate(3722 2048) scale (1 -1)"><path d="M778 889L514 889L514 0L209 0L209 889L41 889L41 1036L209 1118L209 1200Q209 1391 303 1479Q397 1567 604 1567Q762 1567 885 1520L807 1296Q715 1325 637 1325Q572 1325 543 1286.5Q514 1248 514 1188L514 1118L778 1118ZM940 1407Q940 1556 1106 1556Q1272 1556 1272 1407Q1272 1336 1230.5 1296.5Q1189 1257 1106 1257Q940 1257 940 1407ZM1258 0L953 0L953 1118L1258 1118Z"/></g><g transform="translate(5139 2048) scale (1 -1)"><path d="M614 -20Q92 -20 92 553Q92 838 234 988.5Q376 1139 641 1139Q835 1139 989 1063L899 827Q827 856 765 874.5Q703 893 641 893Q403 893 403 555Q403 227 641 227Q729 227 804 250.5Q879 274 954 324L954 63Q880 16 804.5 -2Q729 -20 614 -20Z"/></g><g transform="translate(6192 2048) scale (1 -1)"><path d="M453 608L586 778L899 1118L1243 1118L799 633L1270 0L918 0L596 453L465 348L465 0L160 0L160 1556L465 1556L465 862L449 608Z"/></g><g transform="translate(7462 2048) scale (1 -1)"><path d="M623 922Q526 922 471 860.5Q416 799 408 686L836 686Q834 799 777 860.5Q720 922 623 922ZM666 -20Q396 -20 244 129Q92 278 92 551Q92 832 232.5 985.5Q373 1139 621 1139Q858 1139 990 1004Q1122 869 1122 631L1122 483L401 483Q406 353 478 280Q550 207 680 207Q781 207 871 228Q961 249 1059 295L1059 59Q979 19 888 -0.5Q797 -20 666 -20ZM447 1241L447 1268Q619 1468 682 1569L1024 1569L1024 1548Q972 1496 846.5 1393.5Q721 1291 650 1241Z"/></g></g></g><g transform="translate(-468,-71)"><rect x="0" y="0" width="73" height="30" border="1" rx="10" ry="10" style="fill:#FFFF00;stroke:#707070;stroke-width:1px;"/><g transform="translate (6 6) scale(0.005859375)" style="fill:#4F4F4F;"><g transform="translate(72.33333333333303 2048) scale (1 -1)"><path d="M494 813L594 813Q741 813 811 862Q881 911 881 1016Q881 1120 809.5 1164Q738 1208 588 1208L494 1208ZM494 561L494 0L184 0L184 1462L610 1462Q908 1462 1051 1353.5Q1194 1245 1194 1024Q1194 895 1123 794.5Q1052 694 922 637L1352 0L1008 0L659 561Z"/></g><g transform="translate(1424.333333333333 2048) scale (1 -1)"><path d="M870 0L811 152L803 152Q726 55 644.5 17.5Q563 -20 432 -20Q271 -20 178.5 72Q86 164 86 334Q86 512 210.5 596.5Q335 681 586 690L780 696L780 745Q780 915 606 915Q472 915 291 834L190 1040Q383 1141 618 1141Q843 1141 963 1043Q1083 945 1083 745L1083 0ZM780 518L662 514Q529 510 464 466Q399 422 399 332Q399 203 547 203Q653 203 716.5 264Q780 325 780 426Z"/></g><g transform="translate(2661.333333333333 2048) scale (1 -1)"><path d="M940 332Q940 160 820.5 70Q701 -20 463 -20Q341 -20 255 -3.5Q169 13 94 45L94 297Q179 257 285.5 230Q392 203 473 203Q639 203 639 299Q639 335 617 357.5Q595 380 541 408.5Q487 437 397 475Q268 529 207.5 575Q147 621 119.5 680.5Q92 740 92 827Q92 976 207.5 1057.5Q323 1139 535 1139Q737 1139 928 1051L836 831Q752 867 679 890Q606 913 530 913Q395 913 395 840Q395 799 438.5 769Q482 739 629 680Q760 627 821 581Q882 535 911 475Q940 415 940 332Z"/></g><g transform="translate(3679.333333333333 2048) scale (1 -1)"><path d="M631 223Q711 223 823 258L823 31Q709 -20 543 -20Q360 -20 276.5 72.5Q193 165 193 350L193 889L47 889L47 1018L215 1120L303 1356L498 1356L498 1118L811 1118L811 889L498 889L498 350Q498 285 534.5 254Q571 223 631 223Z"/></g><g transform="translate(4568.333333333333 2048) scale (1 -1)"><path d="M623 922Q526 922 471 860.5Q416 799 408 686L836 686Q834 799 777 860.5Q720 922 623 922ZM666 -20Q396 -20 244 129Q92 278 92 551Q92 832 232.5 985.5Q373 1139 621 1139Q858 1139 990 1004Q1122 869 1122 631L1122 483L401 483Q406 353 478 280Q550 207 680 207Q781 207 871 228Q961 249 1059 295L1059 59Q979 19 888 -0.5Q797 -20 666 -20Z"/></g><g transform="translate(5778.333333333333 2048) scale (1 -1)"><path d="M784 1139Q846 1139 887 1130L864 844Q827 854 774 854Q628 854 546.5 779Q465 704 465 569L465 0L160 0L160 1118L391 1118L436 930L451 930Q503 1024 591.5 1081.5Q680 1139 784 1139Z"/></g><g transform="translate(6708.333333333333 2048) scale (1 -1)"><path d="M403 561Q403 395 457.5 310Q512 225 635 225Q757 225 810.5 309.5Q864 394 864 561Q864 727 810 810Q756 893 633 893Q511 893 457 810.5Q403 728 403 561ZM1176 561Q1176 288 1032 134Q888 -20 631 -20Q470 -20 347 50.5Q224 121 158 253Q92 385 92 561Q92 835 235 987Q378 1139 637 1139Q798 1139 921 1069Q1044 999 1110 868Q1176 737 1176 561Z"/></g><g transform="translate(7976.333333333333 2048) scale (1 -1)"><path d="M426 0L0 1118L319 1118L535 481Q568 377 578 252L586 252Q592 365 631 481L846 1118L1165 1118L739 0Z"/></g><g transform="translate(9141.333333333332 2048) scale (1 -1)"><path d="M870 0L811 152L803 152Q726 55 644.5 17.5Q563 -20 432 -20Q271 -20 178.5 72Q86 164 86 334Q86 512 210.5 596.5Q335 681 586 690L780 696L780 745Q780 915 606 915Q472 915 291 834L190 1040Q383 1141 618 1141Q843 1141 963 1043Q1083 945 1083 745L1083 0ZM780 518L662 514Q529 510 464 466Q399 422 399 332Q399 203 547 203Q653 203 716.5 264Q780 325 780 426ZM441 1241L441 1268Q613 1468 676 1569L1018 1569L1018 1548Q966 1496 840.5 1393.5Q715 1291 644 1241Z"/></g></g></g><g transform="translate(-469,29)"><rect x="0" y="0" width="74" height="30" border="1" rx="10" ry="10" style="fill:#FFFF00;stroke:#707070;stroke-width:1px;"/><g transform="translate (6 6) scale(0.005859375)" style="fill:#4F4F4F;"><g transform="translate(36.66666666666697 2048) scale (1 -1)"><path d="M1018 1462L1331 1462L834 0L496 0L0 1462L313 1462L588 592Q611 515 635.5 412.5Q660 310 666 270Q677 362 741 592Z"/></g><g transform="translate(1367.666666666667 2048) scale (1 -1)"><path d="M623 922Q526 922 471 860.5Q416 799 408 686L836 686Q834 799 777 860.5Q720 922 623 922ZM666 -20Q396 -20 244 129Q92 278 92 551Q92 832 232.5 985.5Q373 1139 621 1139Q858 1139 990 1004Q1122 869 1122 631L1122 483L401 483Q406 353 478 280Q550 207 680 207Q781 207 871 228Q961 249 1059 295L1059 59Q979 19 888 -0.5Q797 -20 666 -20Z"/></g><g transform="translate(2577.666666666667 2048) scale (1 -1)"><path d="M453 608L586 778L899 1118L1243 1118L799 633L1270 0L918 0L596 453L465 348L465 0L160 0L160 1556L465 1556L465 862L449 608Z"/></g><g transform="translate(3847.666666666667 2048) scale (1 -1)"><path d="M631 223Q711 223 823 258L823 31Q709 -20 543 -20Q360 -20 276.5 72.5Q193 165 193 350L193 889L47 889L47 1018L215 1120L303 1356L498 1356L498 1118L811 1118L811 889L498 889L498 350Q498 285 534.5 254Q571 223 631 223Z"/></g><g transform="translate(4736.666666666667 2048) scale (1 -1)"><path d="M403 561Q403 395 457.5 310Q512 225 635 225Q757 225 810.5 309.5Q864 394 864 561Q864 727 810 810Q756 893 633 893Q511 893 457 810.5Q403 728 403 561ZM1176 561Q1176 288 1032 134Q888 -20 631 -20Q470 -20 347 50.5Q224 121 158 253Q92 385 92 561Q92 835 235 987Q378 1139 637 1139Q798 1139 921 1069Q1044 999 1110 868Q1176 737 1176 561Z"/></g><g transform="translate(6004.666666666667 2048) scale (1 -1)"><path d="M784 1139Q846 1139 887 1130L864 844Q827 854 774 854Q628 854 546.5 779Q465 704 465 569L465 0L160 0L160 1118L391 1118L436 930L451 930Q503 1024 591.5 1081.5Q680 1139 784 1139Z"/></g><g transform="translate(6934.666666666667 2048) scale (1 -1)"><path d="M403 561Q403 395 457.5 310Q512 225 635 225Q757 225 810.5 309.5Q864 394 864 561Q864 727 810 810Q756 893 633 893Q511 893 457 810.5Q403 728 403 561ZM1176 561Q1176 288 1032 134Q888 -20 631 -20Q470 -20 347 50.5Q224 121 158 253Q92 385 92 561Q92 835 235 987Q378 1139 637 1139Q798 1139 921 1069Q1044 999 1110 868Q1176 737 1176 561Z"/></g><g transform="translate(8202.666666666668 2048) scale (1 -1)"><path d="M426 0L0 1118L319 1118L535 481Q568 377 578 252L586 252Q592 365 631 481L846 1118L1165 1118L739 0Z"/></g><g transform="translate(9367.666666666668 2048) scale (1 -1)"><path d="M870 0L811 152L803 152Q726 55 644.5 17.5Q563 -20 432 -20Q271 -20 178.5 72Q86 164 86 334Q86 512 210.5 596.5Q335 681 586 690L780 696L780 745Q780 915 606 915Q472 915 291 834L190 1040Q383 1141 618 1141Q843 1141 963 1043Q1083 945 1083 745L1083 0ZM780 518L662 514Q529 510 464 466Q399 422 399 332Q399 203 547 203Q653 203 716.5 264Q780 325 780 426ZM441 1241L441 1268Q613 1468 676 1569L1018 1569L1018 1548Q966 1496 840.5 1393.5Q715 1291 644 1241Z"/></g></g></g><g transform="translate(-533,-96)"><rect x="0" y="0" width="45" height="30" border="1" rx="10" ry="10" style="fill:#FFFF99;stroke:#707070;stroke-width:1px;"/><g transform="translate (6 6) scale(0.005859375)" style="fill:#4F4F4F;"><g transform="translate(67.5 2048) scale (1 -1)"><path d="M739 821L1319 821L1319 63Q1178 17 1053.5 -1.5Q929 -20 799 -20Q468 -20 293.5 174.5Q119 369 119 733Q119 1087 321.5 1285Q524 1483 883 1483Q1108 1483 1317 1393L1214 1145Q1054 1225 881 1225Q680 1225 559 1090Q438 955 438 727Q438 489 535.5 363.5Q633 238 819 238Q916 238 1016 258L1016 563L739 563Z"/></g><g transform="translate(1550.5 2048) scale (1 -1)"><path d="M731 0L66 0L66 176L244 258L244 1204L66 1286L66 1462L731 1462L731 1286L553 1204L553 258L731 176Z"/></g><g transform="translate(2347.5 2048) scale (1 -1)"><path d="M803 0L451 1147L442 1147Q461 797 461 680L461 0L184 0L184 1462L606 1462L952 344L958 344L1325 1462L1747 1462L1747 0L1458 0L1458 692Q1458 741 1459.5 805Q1461 869 1473 1145L1464 1145L1087 0Z"/></g><g transform="translate(4278.5 2048) scale (1 -1)"><path d="M494 774L596 774Q739 774 810 830.5Q881 887 881 995Q881 1104 821.5 1156Q762 1208 635 1208L494 1208ZM1194 1006Q1194 770 1046.5 645Q899 520 627 520L494 520L494 0L184 0L184 1462L651 1462Q917 1462 1055.5 1347.5Q1194 1233 1194 1006Z"/></g></g></g><g transform="translate(-566,-46)"><rect x="0" y="0" width="78" height="30" border="1" rx="10" ry="10" style="fill:#FFFF99;stroke:#707070;stroke-width:1px;"/><g transform="translate (6 6) scale(0.005859375)" style="fill:#4F4F4F;"><g transform="translate(84.5 2048) scale (1 -1)"><path d="M494 774L596 774Q739 774 810 830.5Q881 887 881 995Q881 1104 821.5 1156Q762 1208 635 1208L494 1208ZM1194 1006Q1194 770 1046.5 645Q899 520 627 520L494 520L494 0L184 0L184 1462L651 1462Q917 1462 1055.5 1347.5Q1194 1233 1194 1006Z"/></g><g transform="translate(1370.5 2048) scale (1 -1)"><path d="M1192 0L887 0L887 653Q887 895 707 895Q579 895 522 808Q465 721 465 526L465 0L160 0L160 1556L465 1556L465 1239Q465 1202 458 1065L451 975L467 975Q569 1139 791 1139Q988 1139 1090 1033Q1192 927 1192 729Z"/></g><g transform="translate(2716.5 2048) scale (1 -1)"><path d="M403 561Q403 395 457.5 310Q512 225 635 225Q757 225 810.5 309.5Q864 394 864 561Q864 727 810 810Q756 893 633 893Q511 893 457 810.5Q403 728 403 561ZM1176 561Q1176 288 1032 134Q888 -20 631 -20Q470 -20 347 50.5Q224 121 158 253Q92 385 92 561Q92 835 235 987Q378 1139 637 1139Q798 1139 921 1069Q1044 999 1110 868Q1176 737 1176 561Z"/></g><g transform="translate(3984.5 2048) scale (1 -1)"><path d="M631 223Q711 223 823 258L823 31Q709 -20 543 -20Q360 -20 276.5 72.5Q193 165 193 350L193 889L47 889L47 1018L215 1120L303 1356L498 1356L498 1118L811 1118L811 889L498 889L498 350Q498 285 534.5 254Q571 223 631 223Z"/></g><g transform="translate(4873.5 2048) scale (1 -1)"><path d="M403 561Q403 395 457.5 310Q512 225 635 225Q757 225 810.5 309.5Q864 394 864 561Q864 727 810 810Q756 893 633 893Q511 893 457 810.5Q403 728 403 561ZM1176 561Q1176 288 1032 134Q888 -20 631 -20Q470 -20 347 50.5Q224 121 158 253Q92 385 92 561Q92 835 235 987Q378 1139 637 1139Q798 1139 921 1069Q1044 999 1110 868Q1176 737 1176 561Z"/></g><g transform="translate(6141.5 2048) scale (1 -1)"><path d="M1047 406Q1047 208 904.5 94Q762 -20 508 -20Q274 -20 94 68L94 356Q242 290 344.5 263Q447 236 532 236Q634 236 688.5 275Q743 314 743 391Q743 434 719 467.5Q695 501 648.5 532Q602 563 459 631Q325 694 258 752Q191 810 151 887Q111 964 111 1067Q111 1261 242.5 1372Q374 1483 606 1483Q720 1483 823.5 1456Q927 1429 1040 1380L940 1139Q823 1187 746.5 1206Q670 1225 596 1225Q508 1225 461 1184Q414 1143 414 1077Q414 1036 433 1005.5Q452 975 493.5 946.5Q535 918 690 844Q895 746 971 647.5Q1047 549 1047 406Z"/></g><g transform="translate(7269.5 2048) scale (1 -1)"><path d="M1192 0L887 0L887 653Q887 895 707 895Q579 895 522 808Q465 721 465 526L465 0L160 0L160 1556L465 1556L465 1239Q465 1202 458 1065L451 975L467 975Q569 1139 791 1139Q988 1139 1090 1033Q1192 927 1192 729Z"/></g><g transform="translate(8615.5 2048) scale (1 -1)"><path d="M403 561Q403 395 457.5 310Q512 225 635 225Q757 225 810.5 309.5Q864 394 864 561Q864 727 810 810Q756 893 633 893Q511 893 457 810.5Q403 728 403 561ZM1176 561Q1176 288 1032 134Q888 -20 631 -20Q470 -20 347 50.5Q224 121 158 253Q92 385 92 561Q92 835 235 987Q378 1139 637 1139Q798 1139 921 1069Q1044 999 1110 868Q1176 737 1176 561Z"/></g><g transform="translate(9883.5 2048) scale (1 -1)"><path d="M774 -20Q577 -20 465 123L449 123Q465 -17 465 -39L465 -492L160 -492L160 1118L408 1118L451 973L465 973Q572 1139 782 1139Q980 1139 1092 986Q1204 833 1204 561Q1204 382 1151.5 250Q1099 118 1002 49Q905 -20 774 -20ZM684 895Q571 895 519 825.5Q467 756 465 596L465 563Q465 383 518.5 305Q572 227 688 227Q893 227 893 565Q893 730 842.5 812.5Q792 895 684 895Z"/></g></g></g><g transform="translate(-556,4)"><rect x="0" y="0" width="67" height="30" border="1" rx="10" ry="10" style="fill:#FFFF99;stroke:#707070;stroke-width:1px;"/><g transform="translate (6 6) scale(0.005859375)" style="fill:#4F4F4F;"><g transform="translate(79.83333333333303 2048) scale (1 -1)"><path d="M731 0L66 0L66 176L244 258L244 1204L66 1286L66 1462L731 1462L731 1286L553 1204L553 258L731 176Z"/></g><g transform="translate(876.833333333333 2048) scale (1 -1)"><path d="M1192 0L887 0L887 653Q887 774 844 834.5Q801 895 707 895Q579 895 522 809.5Q465 724 465 526L465 0L160 0L160 1118L393 1118L434 975L451 975Q502 1056 591.5 1097.5Q681 1139 795 1139Q990 1139 1091 1033.5Q1192 928 1192 729Z"/></g><g transform="translate(2222.833333333333 2048) scale (1 -1)"><path d="M453 608L586 778L899 1118L1243 1118L799 633L1270 0L918 0L596 453L465 348L465 0L160 0L160 1556L465 1556L465 862L449 608Z"/></g><g transform="translate(3492.833333333333 2048) scale (1 -1)"><path d="M940 332Q940 160 820.5 70Q701 -20 463 -20Q341 -20 255 -3.5Q169 13 94 45L94 297Q179 257 285.5 230Q392 203 473 203Q639 203 639 299Q639 335 617 357.5Q595 380 541 408.5Q487 437 397 475Q268 529 207.5 575Q147 621 119.5 680.5Q92 740 92 827Q92 976 207.5 1057.5Q323 1139 535 1139Q737 1139 928 1051L836 831Q752 867 679 890Q606 913 530 913Q395 913 395 840Q395 799 438.5 769Q482 739 629 680Q760 627 821 581Q882 535 911 475Q940 415 940 332Z"/></g><g transform="translate(4510.833333333333 2048) scale (1 -1)"><path d="M614 -20Q92 -20 92 553Q92 838 234 988.5Q376 1139 641 1139Q835 1139 989 1063L899 827Q827 856 765 874.5Q703 893 641 893Q403 893 403 555Q403 227 641 227Q729 227 804 250.5Q879 274 954 324L954 63Q880 16 804.5 -2Q729 -20 614 -20Z"/></g><g transform="translate(5563.833333333333 2048) scale (1 -1)"><path d="M870 0L811 152L803 152Q726 55 644.5 17.5Q563 -20 432 -20Q271 -20 178.5 72Q86 164 86 334Q86 512 210.5 596.5Q335 681 586 690L780 696L780 745Q780 915 606 915Q472 915 291 834L190 1040Q383 1141 618 1141Q843 1141 963 1043Q1083 945 1083 745L1083 0ZM780 518L662 514Q529 510 464 466Q399 422 399 332Q399 203 547 203Q653 203 716.5 264Q780 325 780 426Z"/></g><g transform="translate(6800.833333333333 2048) scale (1 -1)"><path d="M774 -20Q577 -20 465 123L449 123Q465 -17 465 -39L465 -492L160 -492L160 1118L408 1118L451 973L465 973Q572 1139 782 1139Q980 1139 1092 986Q1204 833 1204 561Q1204 382 1151.5 250Q1099 118 1002 49Q905 -20 774 -20ZM684 895Q571 895 519 825.5Q467 756 465 596L465 563Q465 383 518.5 305Q572 227 688 227Q893 227 893 565Q893 730 842.5 812.5Q792 895 684 895Z"/></g><g transform="translate(8096.833333333333 2048) scale (1 -1)"><path d="M623 922Q526 922 471 860.5Q416 799 408 686L836 686Q834 799 777 860.5Q720 922 623 922ZM666 -20Q396 -20 244 129Q92 278 92 551Q92 832 232.5 985.5Q373 1139 621 1139Q858 1139 990 1004Q1122 869 1122 631L1122 483L401 483Q406 353 478 280Q550 207 680 207Q781 207 871 228Q961 249 1059 295L1059 59Q979 19 888 -0.5Q797 -20 666 -20Z"/></g></g></g><g transform="translate(-560,54)"><rect x="0" y="0" width="71" height="30" border="1" rx="10" ry="10" style="fill:#FFFF99;stroke:#707070;stroke-width:1px;"/><g transform="translate (6 6) scale(0.005859375)" style="fill:#4F4F4F;"><g transform="translate(80.16666666666697 2048) scale (1 -1)"><path d="M731 0L66 0L66 176L244 258L244 1204L66 1286L66 1462L731 1462L731 1286L553 1204L553 258L731 176Z"/></g><g transform="translate(877.166666666667 2048) scale (1 -1)"><path d="M465 0L160 0L160 1556L465 1556Z"/></g><g transform="translate(1502.166666666667 2048) scale (1 -1)"><path d="M952 0L911 143L895 143Q846 65 756 22.5Q666 -20 551 -20Q354 -20 254 85.5Q154 191 154 389L154 1118L459 1118L459 465Q459 344 502 283.5Q545 223 639 223Q767 223 824 308.5Q881 394 881 592L881 1118L1186 1118L1186 0Z"/></g><g transform="translate(2848.166666666667 2048) scale (1 -1)"><path d="M940 332Q940 160 820.5 70Q701 -20 463 -20Q341 -20 255 -3.5Q169 13 94 45L94 297Q179 257 285.5 230Q392 203 473 203Q639 203 639 299Q639 335 617 357.5Q595 380 541 408.5Q487 437 397 475Q268 529 207.5 575Q147 621 119.5 680.5Q92 740 92 827Q92 976 207.5 1057.5Q323 1139 535 1139Q737 1139 928 1051L836 831Q752 867 679 890Q606 913 530 913Q395 913 395 840Q395 799 438.5 769Q482 739 629 680Q760 627 821 581Q882 535 911 475Q940 415 940 332Z"/></g><g transform="translate(3866.166666666667 2048) scale (1 -1)"><path d="M631 223Q711 223 823 258L823 31Q709 -20 543 -20Q360 -20 276.5 72.5Q193 165 193 350L193 889L47 889L47 1018L215 1120L303 1356L498 1356L498 1118L811 1118L811 889L498 889L498 350Q498 285 534.5 254Q571 223 631 223Z"/></g><g transform="translate(4755.166666666667 2048) scale (1 -1)"><path d="M784 1139Q846 1139 887 1130L864 844Q827 854 774 854Q628 854 546.5 779Q465 704 465 569L465 0L160 0L160 1118L391 1118L436 930L451 930Q503 1024 591.5 1081.5Q680 1139 784 1139Z"/></g><g transform="translate(5685.166666666667 2048) scale (1 -1)"><path d="M870 0L811 152L803 152Q726 55 644.5 17.5Q563 -20 432 -20Q271 -20 178.5 72Q86 164 86 334Q86 512 210.5 596.5Q335 681 586 690L780 696L780 745Q780 915 606 915Q472 915 291 834L190 1040Q383 1141 618 1141Q843 1141 963 1043Q1083 945 1083 745L1083 0ZM780 518L662 514Q529 510 464 466Q399 422 399 332Q399 203 547 203Q653 203 716.5 264Q780 325 780 426Z"/></g><g transform="translate(6922.166666666667 2048) scale (1 -1)"><path d="M631 223Q711 223 823 258L823 31Q709 -20 543 -20Q360 -20 276.5 72.5Q193 165 193 350L193 889L47 889L47 1018L215 1120L303 1356L498 1356L498 1118L811 1118L811 889L498 889L498 350Q498 285 534.5 254Q571 223 631 223Z"/></g><g transform="translate(7811.166666666667 2048) scale (1 -1)"><path d="M403 561Q403 395 457.5 310Q512 225 635 225Q757 225 810.5 309.5Q864 394 864 561Q864 727 810 810Q756 893 633 893Q511 893 457 810.5Q403 728 403 561ZM1176 561Q1176 288 1032 134Q888 -20 631 -20Q470 -20 347 50.5Q224 121 158 253Q92 385 92 561Q92 835 235 987Q378 1139 637 1139Q798 1139 921 1069Q1044 999 1110 868Q1176 737 1176 561Z"/></g><g transform="translate(9079.166666666668 2048) scale (1 -1)"><path d="M784 1139Q846 1139 887 1130L864 844Q827 854 774 854Q628 854 546.5 779Q465 704 465 569L465 0L160 0L160 1118L391 1118L436 930L451 930Q503 1024 591.5 1081.5Q680 1139 784 1139Z"/></g></g></g><g transform="translate(-415,129)"><rect x="0" y="0" width="97" height="30" border="1" rx="10" ry="10" style="fill:#FFCC00;stroke:#707070;stroke-width:1px;"/><g transform="translate (6 6) scale(0.005859375)" style="fill:#4F4F4F;"><g transform="translate(57.83333333333303 2048) scale (1 -1)"><path d="M803 0L451 1147L442 1147Q461 797 461 680L461 0L184 0L184 1462L606 1462L952 344L958 344L1325 1462L1747 1462L1747 0L1458 0L1458 692Q1458 741 1459.5 805Q1461 869 1473 1145L1464 1145L1087 0Z"/></g><g transform="translate(1988.833333333333 2048) scale (1 -1)"><path d="M952 0L911 143L895 143Q846 65 756 22.5Q666 -20 551 -20Q354 -20 254 85.5Q154 191 154 389L154 1118L459 1118L459 465Q459 344 502 283.5Q545 223 639 223Q767 223 824 308.5Q881 394 881 592L881 1118L1186 1118L1186 0Z"/></g><g transform="translate(3334.833333333333 2048) scale (1 -1)"><path d="M465 0L160 0L160 1556L465 1556Z"/></g><g transform="translate(3959.833333333333 2048) scale (1 -1)"><path d="M631 223Q711 223 823 258L823 31Q709 -20 543 -20Q360 -20 276.5 72.5Q193 165 193 350L193 889L47 889L47 1018L215 1120L303 1356L498 1356L498 1118L811 1118L811 889L498 889L498 350Q498 285 534.5 254Q571 223 631 223Z"/></g><g transform="translate(4848.833333333333 2048) scale (1 -1)"><path d="M147 1407Q147 1556 313 1556Q479 1556 479 1407Q479 1336 437.5 1296.5Q396 1257 313 1257Q147 1257 147 1407ZM465 0L160 0L160 1118L465 1118Z"/></g><g transform="translate(5473.833333333333 2048) scale (1 -1)"><path d="M1161 0L856 0L856 653Q856 774 815.5 834.5Q775 895 688 895Q571 895 518 809Q465 723 465 526L465 0L160 0L160 1118L393 1118L434 975L451 975Q496 1052 581 1095.5Q666 1139 776 1139Q1027 1139 1116 975L1143 975Q1188 1053 1275.5 1096Q1363 1139 1473 1139Q1663 1139 1760.5 1041.5Q1858 944 1858 729L1858 0L1552 0L1552 653Q1552 774 1511.5 834.5Q1471 895 1384 895Q1272 895 1216.5 815Q1161 735 1161 561Z"/></g><g transform="translate(7484.833333333333 2048) scale (1 -1)"><path d="M623 922Q526 922 471 860.5Q416 799 408 686L836 686Q834 799 777 860.5Q720 922 623 922ZM666 -20Q396 -20 244 129Q92 278 92 551Q92 832 232.5 985.5Q373 1139 621 1139Q858 1139 990 1004Q1122 869 1122 631L1122 483L401 483Q406 353 478 280Q550 207 680 207Q781 207 871 228Q961 249 1059 295L1059 59Q979 19 888 -0.5Q797 -20 666 -20Z"/></g><g transform="translate(8694.833333333332 2048) scale (1 -1)"><path d="M514 -20Q317 -20 204.5 133Q92 286 92 557Q92 832 206.5 985.5Q321 1139 522 1139Q733 1139 844 975L854 975Q831 1100 831 1198L831 1556L1137 1556L1137 0L903 0L844 145L831 145Q727 -20 514 -20ZM621 223Q738 223 792.5 291Q847 359 852 522L852 555Q852 735 796.5 813Q741 891 616 891Q514 891 457.5 804.5Q401 718 401 553Q401 388 458 305.5Q515 223 621 223Z"/></g><g transform="translate(9990.833333333332 2048) scale (1 -1)"><path d="M147 1407Q147 1556 313 1556Q479 1556 479 1407Q479 1336 437.5 1296.5Q396 1257 313 1257Q147 1257 147 1407ZM465 0L160 0L160 1118L465 1118Z"/></g><g transform="translate(10615.833333333332 2048) scale (1 -1)"><path d="M870 0L811 152L803 152Q726 55 644.5 17.5Q563 -20 432 -20Q271 -20 178.5 72Q86 164 86 334Q86 512 210.5 596.5Q335 681 586 690L780 696L780 745Q780 915 606 915Q472 915 291 834L190 1040Q383 1141 618 1141Q843 1141 963 1043Q1083 945 1083 745L1083 0ZM780 518L662 514Q529 510 464 466Q399 422 399 332Q399 203 547 203Q653 203 716.5 264Q780 325 780 426ZM441 1241L441 1268Q613 1468 676 1569L1018 1569L1018 1548Q966 1496 840.5 1393.5Q715 1291 644 1241Z"/></g><g transform="translate(11852.833333333332 2048) scale (1 -1)"><path d="M465 0L160 0L160 1556L465 1556Z"/></g><g transform="translate(12477.833333333332 2048) scale (1 -1)"><path d="M1192 0L887 0L887 653Q887 774 844 834.5Q801 895 707 895Q579 895 522 809.5Q465 724 465 526L465 0L160 0L160 1118L393 1118L434 975L451 975Q502 1056 591.5 1097.5Q681 1139 795 1139Q990 1139 1091 1033.5Q1192 928 1192 729Z"/></g><g transform="translate(13823.833333333332 2048) scale (1 -1)"><path d="M465 0L160 0L160 1118L465 1118ZM145 1241L145 1268Q317 1468 380 1569L722 1569L722 1548Q670 1496 544.5 1393.5Q419 1291 348 1241Z"/></g></g></g><g transform="translate(-470,104)"><rect x="0" y="0" width="35" height="30" border="1" rx="10" ry="10" style="fill:#FFFF00;stroke:#707070;stroke-width:1px;"/><g transform="translate (6 6) scale(0.005859375)" style="fill:#4F4F4F;"><g transform="translate(76.16666666666674 2048) scale (1 -1)"><path d="M1018 1462L1331 1462L834 0L496 0L0 1462L313 1462L588 592Q611 515 635.5 412.5Q660 310 666 270Q677 362 741 592Z"/></g><g transform="translate(1407.1666666666667 2048) scale (1 -1)"><path d="M184 0L184 1462L494 1462L494 256L1087 256L1087 0Z"/></g><g transform="translate(2564.166666666667 2048) scale (1 -1)"><path d="M805 1225Q630 1225 534 1093.5Q438 962 438 727Q438 238 805 238Q959 238 1178 315L1178 55Q998 -20 776 -20Q457 -20 288 173.5Q119 367 119 729Q119 957 202 1128.5Q285 1300 440.5 1391.5Q596 1483 805 1483Q1018 1483 1233 1380L1133 1128Q1051 1167 968 1196Q885 1225 805 1225Z"/></g></g></g><g transform="translate(-500,154)"><rect x="0" y="0" width="65" height="30" border="1" rx="10" ry="10" style="fill:#FFFF00;stroke:#707070;stroke-width:1px;"/><g transform="translate (6 6) scale(0.005859375)" style="fill:#4F4F4F;"><g transform="translate(10.66666666666697 2048) scale (1 -1)"><path d="M1079 0L973 348L440 348L334 0L0 0L516 1468L895 1468L1413 0ZM899 608Q752 1081 733.5 1143Q715 1205 707 1241Q674 1113 518 608Z"/></g><g transform="translate(1423.666666666667 2048) scale (1 -1)"><path d="M952 0L911 143L895 143Q846 65 756 22.5Q666 -20 551 -20Q354 -20 254 85.5Q154 191 154 389L154 1118L459 1118L459 465Q459 344 502 283.5Q545 223 639 223Q767 223 824 308.5Q881 394 881 592L881 1118L1186 1118L1186 0Z"/></g><g transform="translate(2769.666666666667 2048) scale (1 -1)"><path d="M514 -20Q317 -20 204.5 133Q92 286 92 557Q92 832 206.5 985.5Q321 1139 522 1139Q733 1139 844 975L854 975Q831 1100 831 1198L831 1556L1137 1556L1137 0L903 0L844 145L831 145Q727 -20 514 -20ZM621 223Q738 223 792.5 291Q847 359 852 522L852 555Q852 735 796.5 813Q741 891 616 891Q514 891 457.5 804.5Q401 718 401 553Q401 388 458 305.5Q515 223 621 223Z"/></g><g transform="translate(4065.666666666667 2048) scale (1 -1)"><path d="M870 0L811 152L803 152Q726 55 644.5 17.5Q563 -20 432 -20Q271 -20 178.5 72Q86 164 86 334Q86 512 210.5 596.5Q335 681 586 690L780 696L780 745Q780 915 606 915Q472 915 291 834L190 1040Q383 1141 618 1141Q843 1141 963 1043Q1083 945 1083 745L1083 0ZM780 518L662 514Q529 510 464 466Q399 422 399 332Q399 203 547 203Q653 203 716.5 264Q780 325 780 426Z"/></g><g transform="translate(5302.666666666667 2048) scale (1 -1)"><path d="M614 -20Q92 -20 92 553Q92 838 234 988.5Q376 1139 641 1139Q835 1139 989 1063L899 827Q827 856 765 874.5Q703 893 641 893Q403 893 403 555Q403 227 641 227Q729 227 804 250.5Q879 274 954 324L954 63Q880 16 804.5 -2Q729 -20 614 -20Z"/></g><g transform="translate(6355.666666666667 2048) scale (1 -1)"><path d="M147 1407Q147 1556 313 1556Q479 1556 479 1407Q479 1336 437.5 1296.5Q396 1257 313 1257Q147 1257 147 1407ZM465 0L160 0L160 1118L465 1118Z"/></g><g transform="translate(6980.666666666667 2048) scale (1 -1)"><path d="M631 223Q711 223 823 258L823 31Q709 -20 543 -20Q360 -20 276.5 72.5Q193 165 193 350L193 889L47 889L47 1018L215 1120L303 1356L498 1356L498 1118L811 1118L811 889L498 889L498 350Q498 285 534.5 254Q571 223 631 223Z"/></g><g transform="translate(7869.666666666667 2048) scale (1 -1)"><path d="M0 1118L334 1118L545 489Q572 407 582 295L588 295Q599 398 631 489L838 1118L1165 1118L692 -143Q627 -318 506.5 -405Q386 -492 225 -492Q146 -492 70 -475L70 -233Q125 -246 190 -246Q271 -246 331.5 -196.5Q392 -147 426 -47L444 8Z"/></g></g></g><g transform="translate(-361,229)"><rect x="0" y="0" width="49" height="30" border="1" rx="10" ry="10" style="fill:#FFCC00;stroke:#707070;stroke-width:1px;"/><g transform="translate (6 6) scale(0.005859375)" style="fill:#4F4F4F;"><g transform="translate(24.833333333333485 2048) scale (1 -1)"><path d="M1047 406Q1047 208 904.5 94Q762 -20 508 -20Q274 -20 94 68L94 356Q242 290 344.5 263Q447 236 532 236Q634 236 688.5 275Q743 314 743 391Q743 434 719 467.5Q695 501 648.5 532Q602 563 459 631Q325 694 258 752Q191 810 151 887Q111 964 111 1067Q111 1261 242.5 1372Q374 1483 606 1483Q720 1483 823.5 1456Q927 1429 1040 1380L940 1139Q823 1187 746.5 1206Q670 1225 596 1225Q508 1225 461 1184Q414 1143 414 1077Q414 1036 433 1005.5Q452 975 493.5 946.5Q535 918 690 844Q895 746 971 647.5Q1047 549 1047 406Z"/></g><g transform="translate(1152.8333333333335 2048) scale (1 -1)"><path d="M465 0L160 0L160 1118L465 1118ZM145 1241L145 1268Q317 1468 380 1569L722 1569L722 1548Q670 1496 544.5 1393.5Q419 1291 348 1241Z"/></g><g transform="translate(1777.8333333333335 2048) scale (1 -1)"><path d="M631 223Q711 223 823 258L823 31Q709 -20 543 -20Q360 -20 276.5 72.5Q193 165 193 350L193 889L47 889L47 1018L215 1120L303 1356L498 1356L498 1118L811 1118L811 889L498 889L498 350Q498 285 534.5 254Q571 223 631 223ZM620 1275Q635 1324 654.5 1418Q674 1512 682 1576L964 1576L964 1556Q884 1380 798 1249L620 1249Z"/></g><g transform="translate(2666.8333333333335 2048) scale (1 -1)"><path d="M403 561Q403 395 457.5 310Q512 225 635 225Q757 225 810.5 309.5Q864 394 864 561Q864 727 810 810Q756 893 633 893Q511 893 457 810.5Q403 728 403 561ZM1176 561Q1176 288 1032 134Q888 -20 631 -20Q470 -20 347 50.5Q224 121 158 253Q92 385 92 561Q92 835 235 987Q378 1139 637 1139Q798 1139 921 1069Q1044 999 1110 868Q1176 737 1176 561Z"/></g><g transform="translate(3934.8333333333335 2048) scale (1 -1)"><path d="M426 0L0 1118L319 1118L535 481Q568 377 578 252L586 252Q592 365 631 481L846 1118L1165 1118L739 0Z"/></g><g transform="translate(5099.833333333334 2048) scale (1 -1)"><path d="M623 922Q526 922 471 860.5Q416 799 408 686L836 686Q834 799 777 860.5Q720 922 623 922ZM666 -20Q396 -20 244 129Q92 278 92 551Q92 832 232.5 985.5Q373 1139 621 1139Q858 1139 990 1004Q1122 869 1122 631L1122 483L401 483Q406 353 478 280Q550 207 680 207Q781 207 871 228Q961 249 1059 295L1059 59Q979 19 888 -0.5Q797 -20 666 -20ZM447 1241L447 1268Q619 1468 682 1569L1024 1569L1024 1548Q972 1496 846.5 1393.5Q721 1291 650 1241Z"/></g></g></g><g transform="translate(-443,204)"><rect x="0" y="0" width="62" height="30" border="1" rx="10" ry="10" style="fill:#FFFF00;stroke:#707070;stroke-width:1px;"/><g transform="translate (6 6) scale(0.005859375)" style="fill:#4F4F4F;"><g transform="translate(44.16666666666697 2048) scale (1 -1)"><path d="M184 1462L639 1462Q950 1462 1090.5 1373.5Q1231 1285 1231 1092Q1231 961 1169.5 877Q1108 793 1006 776L1006 766Q1145 735 1206.5 650Q1268 565 1268 424Q1268 224 1123.5 112Q979 0 731 0L184 0ZM494 883L674 883Q800 883 856.5 922Q913 961 913 1051Q913 1135 851.5 1171.5Q790 1208 657 1208L494 1208ZM494 637L494 256L696 256Q824 256 885 305Q946 354 946 455Q946 637 686 637Z"/></g><g transform="translate(1420.166666666667 2048) scale (1 -1)"><path d="M784 1139Q846 1139 887 1130L864 844Q827 854 774 854Q628 854 546.5 779Q465 704 465 569L465 0L160 0L160 1118L391 1118L436 930L451 930Q503 1024 591.5 1081.5Q680 1139 784 1139Z"/></g><g transform="translate(2350.166666666667 2048) scale (1 -1)"><path d="M403 561Q403 395 457.5 310Q512 225 635 225Q757 225 810.5 309.5Q864 394 864 561Q864 727 810 810Q756 893 633 893Q511 893 457 810.5Q403 728 403 561ZM1176 561Q1176 288 1032 134Q888 -20 631 -20Q470 -20 347 50.5Q224 121 158 253Q92 385 92 561Q92 835 235 987Q378 1139 637 1139Q798 1139 921 1069Q1044 999 1110 868Q1176 737 1176 561Z"/></g><g transform="translate(3618.166666666667 2048) scale (1 -1)"><path d="M1079 0L993 391L879 885L870 885L666 0L338 0L20 1118L324 1118L453 623Q475 535 514 256L522 256Q526 332 557 497L573 582L711 1118L1047 1118L1178 582Q1190 527 1207.5 420.5Q1225 314 1227 256L1235 256Q1246 345 1266 458.5Q1286 572 1300 623L1434 1118L1733 1118L1411 0Z"/></g><g transform="translate(5371.166666666667 2048) scale (1 -1)"><path d="M940 332Q940 160 820.5 70Q701 -20 463 -20Q341 -20 255 -3.5Q169 13 94 45L94 297Q179 257 285.5 230Q392 203 473 203Q639 203 639 299Q639 335 617 357.5Q595 380 541 408.5Q487 437 397 475Q268 529 207.5 575Q147 621 119.5 680.5Q92 740 92 827Q92 976 207.5 1057.5Q323 1139 535 1139Q737 1139 928 1051L836 831Q752 867 679 890Q606 913 530 913Q395 913 395 840Q395 799 438.5 769Q482 739 629 680Q760 627 821 581Q882 535 911 475Q940 415 940 332Z"/></g><g transform="translate(6389.166666666667 2048) scale (1 -1)"><path d="M623 922Q526 922 471 860.5Q416 799 408 686L836 686Q834 799 777 860.5Q720 922 623 922ZM666 -20Q396 -20 244 129Q92 278 92 551Q92 832 232.5 985.5Q373 1139 621 1139Q858 1139 990 1004Q1122 869 1122 631L1122 483L401 483Q406 353 478 280Q550 207 680 207Q781 207 871 228Q961 249 1059 295L1059 59Q979 19 888 -0.5Q797 -20 666 -20Z"/></g><g transform="translate(7599.166666666667 2048) scale (1 -1)"><path d="M784 1139Q846 1139 887 1130L864 844Q827 854 774 854Q628 854 546.5 779Q465 704 465 569L465 0L160 0L160 1118L391 1118L436 930L451 930Q503 1024 591.5 1081.5Q680 1139 784 1139Z"/></g></g></g><g transform="translate(-456,254)"><rect x="0" y="0" width="75" height="30" border="1" rx="10" ry="10" style="fill:#FFFF00;stroke:#707070;stroke-width:1px;"/><g transform="translate (6 6) scale(0.005859375)" style="fill:#4F4F4F;"><g transform="translate(27 2048) scale (1 -1)"><path d="M803 0L451 1147L442 1147Q461 797 461 680L461 0L184 0L184 1462L606 1462L952 344L958 344L1325 1462L1747 1462L1747 0L1458 0L1458 692Q1458 741 1459.5 805Q1461 869 1473 1145L1464 1145L1087 0Z"/></g><g transform="translate(1958 2048) scale (1 -1)"><path d="M870 0L811 152L803 152Q726 55 644.5 17.5Q563 -20 432 -20Q271 -20 178.5 72Q86 164 86 334Q86 512 210.5 596.5Q335 681 586 690L780 696L780 745Q780 915 606 915Q472 915 291 834L190 1040Q383 1141 618 1141Q843 1141 963 1043Q1083 945 1083 745L1083 0ZM780 518L662 514Q529 510 464 466Q399 422 399 332Q399 203 547 203Q653 203 716.5 264Q780 325 780 426Z"/></g><g transform="translate(3195 2048) scale (1 -1)"><path d="M147 1407Q147 1556 313 1556Q479 1556 479 1407Q479 1336 437.5 1296.5Q396 1257 313 1257Q147 1257 147 1407ZM465 0L160 0L160 1118L465 1118Z"/></g><g transform="translate(3820 2048) scale (1 -1)"><path d="M465 0L160 0L160 1556L465 1556Z"/></g><g transform="translate(4977 2048) scale (1 -1)"><path d="M614 -20Q92 -20 92 553Q92 838 234 988.5Q376 1139 641 1139Q835 1139 989 1063L899 827Q827 856 765 874.5Q703 893 641 893Q403 893 403 555Q403 227 641 227Q729 227 804 250.5Q879 274 954 324L954 63Q880 16 804.5 -2Q729 -20 614 -20Z"/></g><g transform="translate(6030 2048) scale (1 -1)"><path d="M465 0L160 0L160 1556L465 1556Z"/></g><g transform="translate(6655 2048) scale (1 -1)"><path d="M147 1407Q147 1556 313 1556Q479 1556 479 1407Q479 1336 437.5 1296.5Q396 1257 313 1257Q147 1257 147 1407ZM465 0L160 0L160 1118L465 1118Z"/></g><g transform="translate(7280 2048) scale (1 -1)"><path d="M623 922Q526 922 471 860.5Q416 799 408 686L836 686Q834 799 777 860.5Q720 922 623 922ZM666 -20Q396 -20 244 129Q92 278 92 551Q92 832 232.5 985.5Q373 1139 621 1139Q858 1139 990 1004Q1122 869 1122 631L1122 483L401 483Q406 353 478 280Q550 207 680 207Q781 207 871 228Q961 249 1059 295L1059 59Q979 19 888 -0.5Q797 -20 666 -20Z"/></g><g transform="translate(8490 2048) scale (1 -1)"><path d="M1192 0L887 0L887 653Q887 774 844 834.5Q801 895 707 895Q579 895 522 809.5Q465 724 465 526L465 0L160 0L160 1118L393 1118L434 975L451 975Q502 1056 591.5 1097.5Q681 1139 795 1139Q990 1139 1091 1033.5Q1192 928 1192 729Z"/></g><g transform="translate(9836 2048) scale (1 -1)"><path d="M631 223Q711 223 823 258L823 31Q709 -20 543 -20Q360 -20 276.5 72.5Q193 165 193 350L193 889L47 889L47 1018L215 1120L303 1356L498 1356L498 1118L811 1118L811 889L498 889L498 350Q498 285 534.5 254Q571 223 631 223Z"/></g></g></g></g></svg>